<svg width="16" height="16" viewBox="0 0 16 16" fill="none" xmlns="http://www.w3.org/2000/svg">
<path fill-rule="evenodd" clip-rule="evenodd" d="M2 11.2467V6.17139H14V11.2874C14 13.3801 12.6828 14.6667 10.5752 14.6667H5.41822C3.33041 14.6667 2 13.3534 2 11.2467ZM5.30626 9.60672C5.00329 9.62072 4.75302 9.38005 4.73985 9.07405C4.73985 8.76739 4.97695 8.51405 5.27991 8.50005C5.57629 8.50005 5.81998 8.73405 5.82656 9.03339C5.83974 9.34072 5.60263 9.59405 5.30626 9.60672ZM8.01317 9.60672C7.71021 9.62072 7.45993 9.38005 7.44676 9.07405C7.44676 8.76739 7.68386 8.51405 7.98683 8.50005C8.28321 8.50005 8.52689 8.73405 8.53348 9.03339C8.54665 9.34072 8.30955 9.59405 8.01317 9.60672ZM10.7003 12.0601C10.3974 12.0534 10.1537 11.8001 10.1537 11.4934C10.1471 11.1867 10.3908 10.9341 10.6937 10.9274H10.7003C11.0099 10.9274 11.2602 11.1807 11.2602 11.4934C11.2602 11.8067 11.0099 12.0601 10.7003 12.0601ZM7.44676 11.4934C7.45993 11.8001 7.71021 12.0407 8.01317 12.0267C8.30955 12.0141 8.54665 11.7607 8.53348 11.4541C8.52689 11.1541 8.28321 10.9201 7.98683 10.9201C7.68386 10.9341 7.44676 11.1867 7.44676 11.4934ZM4.73326 11.4934C4.74643 11.8001 4.99671 12.0407 5.29967 12.0267C5.59605 12.0141 5.83315 11.7607 5.81998 11.4541C5.81339 11.1541 5.5697 10.9201 5.27333 10.9201C4.97036 10.9341 4.73326 11.1867 4.73326 11.4934ZM10.1603 9.06739C10.1603 8.76072 10.3974 8.51405 10.7003 8.50739C10.9967 8.50739 11.2338 8.74672 11.247 9.04072C11.2536 9.34739 11.0165 9.60072 10.7201 9.60672C10.4171 9.61339 10.1668 9.38005 10.1603 9.07405V9.06739Z" fill="#0A84FF"/>
<path opacity="0.4" d="M2.0022 6.17133C2.01076 5.77999 2.04369 5.00333 2.1056 4.75333C2.42174 3.34733 3.49528 2.45399 5.02986 2.32666H10.9706C12.492 2.46066 13.5787 3.35999 13.8948 4.75333C13.9561 4.99666 13.989 5.77933 13.9976 6.17133H2.0022Z" fill="#0A84FF"/>
<path d="M5.53668 4.39337C5.82647 4.39337 6.04381 4.17404 6.04381 3.88004V1.84737C6.04381 1.55337 5.82647 1.33337 5.53668 1.33337C5.24688 1.33337 5.02954 1.55337 5.02954 1.84737V3.88004C5.02954 4.17404 5.24688 4.39337 5.53668 4.39337Z" fill="#0A84FF"/>
<path d="M10.4632 4.39337C10.7464 4.39337 10.9703 4.17404 10.9703 3.88004V1.84737C10.9703 1.55337 10.7464 1.33337 10.4632 1.33337C10.1734 1.33337 9.95605 1.55337 9.95605 1.84737V3.88004C9.95605 4.17404 10.1734 4.39337 10.4632 4.39337Z" fill="#0A84FF"/>
</svg>
