<svg width="20" height="17" viewBox="0 0 20 17" fill="none" xmlns="http://www.w3.org/2000/svg">
<path d="M6.27767 16.4286C3.96696 16.4286 1.81298 15.7565 0 14.5969C1.53928 14.6965 4.25576 14.4579 5.94541 12.8463C3.40363 12.7296 2.25733 10.7802 2.10781 9.94712C2.32378 10.0304 3.35379 10.1304 3.93524 9.89713C1.01136 9.16401 0.562805 6.59809 0.662483 5.81498C1.21071 6.1982 2.14104 6.3315 2.50652 6.29817C-0.218005 4.34874 0.762161 1.41626 1.24394 0.783106C3.19916 3.4919 6.12943 5.01326 9.75456 5.09789C9.68621 4.79811 9.65011 4.48601 9.65011 4.16546C9.65011 1.86494 11.5096 0 13.8034 0C15.0018 0 16.0817 0.50911 16.8398 1.32346C17.6406 1.13579 18.8459 0.696477 19.4352 0.316575C19.1382 1.38293 18.2135 2.27249 17.6542 2.6022C17.6589 2.61341 17.6497 2.59093 17.6542 2.6022C18.1455 2.52788 19.4748 2.27241 20 1.91611C19.7403 2.51518 18.76 3.51123 17.9555 4.06887C18.1052 10.67 13.0546 16.4286 6.27767 16.4286Z" fill="#47ACDF"/>
</svg>
