<svg width="55" height="55" viewBox="0 0 55 55" fill="none" xmlns="http://www.w3.org/2000/svg">
    <circle cx="27.5" cy="27.5" r="27.5" fill="#111723"/>
    <path d="M34.323 27.753c-.03-3.04 2.48-4.498 2.592-4.572-1.41-2.062-3.608-2.345-4.39-2.377-1.868-.19-3.647 1.1-4.595 1.1-.946 0-2.41-1.072-3.96-1.045-2.038.03-3.916 1.185-4.965 3.01-2.117 3.672-.542 9.113 1.52 12.093 1.01 1.457 2.212 3.096 3.79 3.036 1.52-.06 2.093-.983 3.932-.983 1.838 0 2.354.983 3.962.953 1.635-.03 2.672-1.485 3.672-2.947 1.158-1.693 1.634-3.331 1.663-3.414-.036-.017-3.188-1.224-3.22-4.854zM31.301 18.832c.837-1.016 1.404-2.427 1.25-3.832-1.208.049-2.67.803-3.536 1.817-.777.9-1.456 2.334-1.274 3.714 1.347.104 2.72-.685 3.56-1.7z" fill="#fff"/>
</svg>
