<svg width="36" height="36" viewBox="0 0 36 36" fill="none" xmlns="http://www.w3.org/2000/svg">
<rect width="36" height="36" rx="8" fill="black"/>
<path fill-rule="evenodd" clip-rule="evenodd" d="M18.9665 13.2531H21.0131C23.4731 13.2531 24.6731 14.5665 24.6665 17.2598V20.5065C24.6665 23.0798 23.0798 24.6665 20.4998 24.6665H15.4931C12.9265 24.6665 11.3331 23.0798 11.3331 20.4998V15.4931C11.3331 12.7331 12.5598 11.3331 14.9798 11.3331H16.0331C16.6538 11.3265 17.2331 11.6131 17.6131 12.0998L18.1998 12.8798C18.3865 13.1131 18.6665 13.2531 18.9665 13.2531ZM14.9132 20.1931H21.0865C21.3598 20.1931 21.5798 19.9665 21.5798 19.6931C21.5798 19.4131 21.3598 19.1931 21.0865 19.1931H14.9132C14.6332 19.1931 14.4132 19.4131 14.4132 19.6931C14.4132 19.9665 14.6332 20.1931 14.9132 20.1931Z" fill="white"/>
</svg>
