<svg width="25" height="24" viewBox="0 0 25 24" fill="none" xmlns="http://www.w3.org/2000/svg">
<g opacity="0.7">
<path fill-rule="evenodd" clip-rule="evenodd" d="M16.6188 2H19.8854C21.237 2 22.3333 3.1059 22.3333 4.47018V7.7641C22.3333 9.12735 21.237 10.2343 19.8854 10.2343H16.6188C15.2663 10.2343 14.1699 9.12735 14.1699 7.7641V4.47018C14.1699 3.1059 15.2663 2 16.6188 2Z" stroke="white" stroke-width="1.5" stroke-linecap="round" stroke-linejoin="round"/>
<path fill-rule="evenodd" clip-rule="evenodd" d="M4.78217 2H8.04774C9.40028 2 10.4967 3.1059 10.4967 4.47018V7.7641C10.4967 9.12735 9.40028 10.2343 8.04774 10.2343H4.78217C3.42963 10.2343 2.33325 9.12735 2.33325 7.7641V4.47018C2.33325 3.1059 3.42963 2 4.78217 2Z" stroke="white" stroke-width="1.5" stroke-linecap="round" stroke-linejoin="round"/>
<path fill-rule="evenodd" clip-rule="evenodd" d="M4.78217 13.7656H8.04774C9.40028 13.7656 10.4967 14.8715 10.4967 16.2368V19.5297C10.4967 20.894 9.40028 21.9999 8.04774 21.9999H4.78217C3.42963 21.9999 2.33325 20.894 2.33325 19.5297V16.2368C2.33325 14.8715 3.42963 13.7656 4.78217 13.7656Z" stroke="white" stroke-width="1.5" stroke-linecap="round" stroke-linejoin="round"/>
<path fill-rule="evenodd" clip-rule="evenodd" d="M16.6188 13.7656H19.8854C21.237 13.7656 22.3333 14.8715 22.3333 16.2368V19.5297C22.3333 20.894 21.237 21.9999 19.8854 21.9999H16.6188C15.2663 21.9999 14.1699 20.894 14.1699 19.5297V16.2368C14.1699 14.8715 15.2663 13.7656 16.6188 13.7656Z" stroke="white" stroke-width="1.5" stroke-linecap="round" stroke-linejoin="round"/>
</g>
</svg>
