<svg width="16" height="16" viewBox="0 0 16 16" fill="none" xmlns="http://www.w3.org/2000/svg">
<path opacity="0.4" d="M9.16715 6.46869V5.12212C8.90281 5.12212 8.68359 4.90918 8.68359 4.65239V3.04904C8.68359 2.83547 8.50951 2.66699 8.2903 2.66699H3.8609C2.46825 2.66699 1.3335 3.76867 1.3335 5.12212V6.74364C1.3335 6.86952 1.38508 6.98852 1.47534 7.07621C1.5656 7.16326 1.68811 7.21337 1.81706 7.21337C2.30706 7.21337 2.68101 7.55158 2.68101 7.99625C2.68101 8.46035 2.30061 8.82987 1.8235 8.83551C1.55916 8.83551 1.3335 9.01714 1.3335 9.28019V10.8842C1.3335 12.237 2.46825 13.333 3.85445 13.333H8.2903C8.50951 13.333 8.68359 13.1633 8.68359 12.951V11.5975C8.68359 11.3351 8.90281 11.1278 9.16715 11.1278V9.91339C8.90281 9.91339 8.68359 9.69981 8.68359 9.44365V6.93842C8.68359 6.68163 8.90281 6.46869 9.16715 6.46869Z" fill="#0A84FF"/>
<path d="M13.3192 7.99688C13.3192 8.46035 13.706 8.82987 14.1767 8.83613C14.441 8.83613 14.6667 9.01776 14.6667 9.27455V10.8842C14.6667 12.2376 13.5384 13.3337 12.1457 13.3337H10.0438C9.83108 13.3337 9.65055 13.1639 9.65055 12.951V11.5982C9.65055 11.3351 9.43779 11.1284 9.16699 11.1284V9.91401C9.43779 9.91401 9.65055 9.70044 9.65055 9.44428V6.93904C9.65055 6.68163 9.43779 6.46931 9.16699 6.46931V5.12212C9.43779 5.12212 9.65055 4.90918 9.65055 4.65239V3.04967C9.65055 2.8361 9.83108 2.66699 10.0438 2.66699H12.1457C13.5384 2.66699 14.6667 3.76303 14.6667 5.11586V6.69416C14.6667 6.81942 14.6151 6.93904 14.5248 7.0261C14.4346 7.11379 14.3121 7.16389 14.1831 7.16389C13.706 7.16389 13.3192 7.5403 13.3192 7.99688Z" fill="#0A84FF"/>
</svg>
