<svg width="25" height="24" viewBox="0 0 25 24" fill="none" xmlns="http://www.w3.org/2000/svg">
<g opacity="0.7">
<path fill-rule="evenodd" clip-rule="evenodd" d="M12.667 2.75024C17.775 2.75024 21.917 6.89224 21.917 12.0002C21.917 17.1082 17.775 21.2502 12.667 21.2502C7.55799 21.2502 3.41699 17.1082 3.41699 12.0002C3.41699 6.89224 7.55799 2.75024 12.667 2.75024Z" stroke="white" stroke-width="1.5" stroke-linecap="round" stroke-linejoin="round"/>
<path d="M8.1875 13.1975C7.5265 13.1975 6.9895 12.6605 6.9895 12.0005C6.9895 11.3405 7.5265 10.8025 8.1875 10.8025C8.8485 10.8025 9.3855 11.3405 9.3855 12.0005C9.3855 12.6605 8.8485 13.1975 8.1875 13.1975Z" fill="white"/>
<path d="M12.667 13.1975C12.006 13.1975 11.469 12.6605 11.469 12.0005C11.469 11.3405 12.006 10.8025 12.667 10.8025C13.328 10.8025 13.865 11.3405 13.865 12.0005C13.865 12.6605 13.328 13.1975 12.667 13.1975Z" fill="white"/>
<path d="M17.146 13.1975C16.485 13.1975 15.948 12.6605 15.948 12.0005C15.948 11.3405 16.485 10.8025 17.146 10.8025C17.807 10.8025 18.344 11.3405 18.344 12.0005C18.344 12.6605 17.807 13.1975 17.146 13.1975Z" fill="white"/>
</g>
</svg>
