<svg width="36" height="36" viewBox="0 0 36 36" fill="none" xmlns="http://www.w3.org/2000/svg">
<rect width="36" height="36" rx="8" fill="black"/>
<path d="M16.0899 23.8486V21.8101C16.0899 21.2897 16.5149 20.8679 17.039 20.8679H18.9552C19.2069 20.8679 19.4483 20.9671 19.6263 21.1438C19.8043 21.3205 19.9043 21.5602 19.9043 21.8101V23.8486C19.9027 24.0649 19.9881 24.2729 20.1417 24.4265C20.2952 24.58 20.5041 24.6663 20.722 24.6663H22.0293C22.6398 24.6679 23.2259 24.4282 23.6582 24.0002C24.0905 23.5722 24.3334 22.991 24.3334 22.3849V16.5776C24.3334 16.088 24.1148 15.6236 23.7365 15.3095L19.2894 11.7836C18.5159 11.1654 17.4075 11.1853 16.657 11.831L12.3114 15.3095C11.9152 15.6143 11.6784 16.0801 11.6667 16.5776V22.379C11.6667 23.6422 12.6983 24.6663 13.9709 24.6663H15.2483C15.7009 24.6663 16.0687 24.3038 16.072 23.8545L16.0899 23.8486Z" fill="white"/>
</svg>
