<svg width="375" height="290" viewBox="0 0 375 290" fill="none" xmlns="http://www.w3.org/2000/svg">
<rect width="375" height="290" fill="white"/>
<path d="M187.824 46H70.9467C66.984 46.0045 63.1848 47.5806 60.3827 50.3827C57.5806 53.1848 56.0045 56.984 56 60.9468V198.185C56.0045 202.148 57.5806 205.947 60.3827 208.749C63.1848 211.551 66.984 213.127 70.9467 213.132H187.824C191.787 213.127 195.586 211.551 198.388 208.749C201.19 205.947 202.766 202.148 202.771 198.185V60.9468C202.766 56.984 201.19 53.1848 198.388 50.3827C195.586 47.5806 191.787 46.0045 187.824 46V46Z" fill="#F2F2F2"/>
<path d="M187.824 50.3027H70.9468C68.1248 50.3059 65.4193 51.4283 63.4239 53.4238C61.4285 55.4192 60.306 58.1247 60.3029 60.9466V198.185C60.306 201.007 61.4285 203.712 63.4239 205.708C65.4193 207.703 68.1248 208.826 70.9468 208.829H187.824C190.646 208.826 193.352 207.703 195.347 205.708C197.343 203.712 198.465 201.007 198.468 198.185V60.9466C198.465 58.1247 197.343 55.4192 195.347 53.4238C193.352 51.4284 190.646 50.3059 187.824 50.3027V50.3027Z" fill="white"/>
<path d="M170.234 90.208H111.13C110.47 90.208 109.837 89.9458 109.37 89.479C108.903 89.0122 108.641 88.3792 108.641 87.719C108.641 87.0589 108.903 86.4258 109.37 85.959C109.837 85.4922 110.47 85.23 111.13 85.23H170.234C170.561 85.23 170.885 85.2944 171.187 85.4194C171.489 85.5445 171.763 85.7279 171.994 85.959C172.225 86.1901 172.409 86.4645 172.534 86.7665C172.659 87.0685 172.723 87.3922 172.723 87.719C172.723 88.0459 172.659 88.3695 172.534 88.6715C172.409 88.9735 172.225 89.2479 171.994 89.479C171.763 89.7102 171.489 89.8935 171.187 90.0186C170.885 90.1437 170.561 90.208 170.234 90.208V90.208Z" fill="#F2F2F2"/>
<path d="M180.501 98.6084H111.13C110.47 98.6077 109.838 98.3451 109.372 97.8784C108.906 97.4117 108.644 96.7791 108.644 96.1194C108.644 95.4598 108.906 94.8271 109.372 94.3604C109.838 93.8937 110.47 93.6311 111.13 93.6304H180.501C181.161 93.6311 181.793 93.8937 182.26 94.3604C182.726 94.8271 182.988 95.4598 182.988 96.1194C182.988 96.7791 182.726 97.4117 182.26 97.8784C181.793 98.3451 181.161 98.6077 180.501 98.6084V98.6084Z" fill="#F2F2F2"/>
<path d="M170.234 127.855H111.13C110.47 127.855 109.837 127.592 109.37 127.126C108.903 126.659 108.641 126.026 108.641 125.366C108.641 124.705 108.903 124.072 109.37 123.605C109.837 123.139 110.47 122.876 111.13 122.876H170.234C170.561 122.876 170.885 122.941 171.187 123.066C171.489 123.191 171.763 123.374 171.994 123.605C172.225 123.837 172.409 124.111 172.534 124.413C172.659 124.715 172.723 125.039 172.723 125.366C172.723 125.692 172.659 126.016 172.534 126.318C172.409 126.62 172.225 126.894 171.994 127.126C171.763 127.357 171.489 127.54 171.187 127.665C170.885 127.79 170.561 127.855 170.234 127.855V127.855Z" fill="#F2F2F2"/>
<path d="M180.501 136.255H111.13C110.47 136.254 109.838 135.992 109.372 135.525C108.906 135.058 108.644 134.426 108.644 133.766C108.644 133.106 108.906 132.474 109.372 132.007C109.838 131.54 110.47 131.278 111.13 131.277H180.501C181.161 131.278 181.793 131.54 182.26 132.007C182.726 132.474 182.988 133.106 182.988 133.766C182.988 134.426 182.726 135.058 182.26 135.525C181.793 135.992 181.161 136.254 180.501 136.255V136.255Z" fill="#F2F2F2"/>
<path d="M170.234 165.502H111.13C110.47 165.502 109.837 165.239 109.37 164.772C108.903 164.306 108.641 163.673 108.641 163.012C108.641 162.352 108.903 161.719 109.37 161.252C109.837 160.786 110.47 160.523 111.13 160.523H170.234C170.561 160.523 170.885 160.587 171.188 160.712C171.49 160.837 171.765 161.02 171.996 161.251C172.228 161.483 172.411 161.757 172.536 162.059C172.662 162.361 172.726 162.685 172.726 163.012C172.726 163.34 172.662 163.663 172.536 163.966C172.411 164.268 172.228 164.542 171.996 164.773C171.765 165.005 171.49 165.188 171.188 165.313C170.885 165.438 170.561 165.502 170.234 165.502V165.502Z" fill="#F2F2F2"/>
<path d="M180.501 173.902H111.13C110.47 173.901 109.838 173.639 109.372 173.172C108.906 172.705 108.644 172.073 108.644 171.413C108.644 170.753 108.906 170.121 109.372 169.654C109.838 169.187 110.47 168.925 111.13 168.924H180.501C181.161 168.925 181.793 169.187 182.26 169.654C182.726 170.121 182.988 170.753 182.988 171.413C182.988 172.073 182.726 172.705 182.26 173.172C181.793 173.639 181.161 173.901 180.501 173.902Z" fill="#F2F2F2"/>
<path d="M97.8904 102.422H76.974C76.6576 102.422 76.3542 102.296 76.1305 102.072C75.9067 101.848 75.7809 101.545 75.7805 101.228V82.61C75.7809 82.2936 75.9067 81.9902 76.1305 81.7665C76.3542 81.5427 76.6576 81.4169 76.974 81.4165H97.8904C98.2068 81.4169 98.5102 81.5427 98.7339 81.7665C98.9577 81.9902 99.0835 82.2936 99.0839 82.61V101.228C99.0835 101.545 98.9577 101.848 98.7339 102.072C98.5102 102.296 98.2068 102.422 97.8904 102.422Z" fill="#E6E6E6"/>
<path d="M97.8904 140.069H76.974C76.6576 140.069 76.3542 139.943 76.1305 139.719C75.9067 139.495 75.7809 139.192 75.7805 138.875V120.257C75.7809 119.941 75.9067 119.637 76.1305 119.413C76.3542 119.19 76.6576 119.064 76.974 119.063H97.8904C98.2068 119.064 98.5102 119.19 98.7339 119.413C98.9577 119.637 99.0835 119.941 99.0839 120.257V138.875C99.0835 139.192 98.9577 139.495 98.7339 139.719C98.5102 139.943 98.2068 140.069 97.8904 140.069V140.069Z" fill="#E6E6E6"/>
<path d="M97.8904 177.715H76.974C76.6576 177.715 76.3542 177.589 76.1305 177.365C75.9067 177.142 75.7809 176.838 75.7805 176.522V157.903C75.7809 157.587 75.9067 157.284 76.1305 157.06C76.3542 156.836 76.6576 156.71 76.974 156.71H97.8904C98.2068 156.71 98.5102 156.836 98.7339 157.06C98.9577 157.284 99.0835 157.587 99.0839 157.903V176.522C99.0835 176.838 98.9577 177.142 98.7339 177.365C98.5102 177.589 98.2068 177.715 97.8904 177.715Z" fill="#E6E6E6"/>
<path d="M290.785 175.795L291.713 167.686L296.362 127.029L297.289 118.92C297.735 114.982 296.6 111.029 294.135 107.926C291.669 104.824 288.074 102.826 284.137 102.372L178.644 90.3089C174.707 89.8631 170.753 90.9975 167.651 93.4631C164.548 95.9287 162.551 99.5242 162.096 103.461L162.094 103.482L155.595 160.315L155.593 160.336C155.147 164.274 156.281 168.227 158.747 171.33C161.212 174.432 164.808 176.429 168.744 176.884L274.237 188.947C278.175 189.393 282.129 188.258 285.231 185.793C288.333 183.327 290.331 179.732 290.785 175.795V175.795Z" fill="#E6E6E6"/>
<path d="M286.511 175.307L287.609 165.702L291.916 128.036L293.014 118.431C293.332 115.627 292.524 112.812 290.768 110.603C289.012 108.393 286.452 106.971 283.649 106.647L178.156 94.5843C175.352 94.2668 172.536 95.0746 170.327 96.8305C168.118 98.5863 166.695 101.147 166.372 103.95L166.369 103.971L159.87 160.804L159.868 160.825C159.551 163.629 160.358 166.445 162.114 168.654C163.87 170.863 166.43 172.286 169.234 172.61L274.727 184.672C277.531 184.99 280.346 184.182 282.555 182.426C284.764 180.671 286.187 178.11 286.511 175.307V175.307Z" fill="white"/>
<path d="M269.243 123.775L210.522 117.06C210.197 117.023 209.882 116.923 209.596 116.764C209.31 116.606 209.058 116.392 208.854 116.136C208.65 115.88 208.499 115.587 208.409 115.272C208.319 114.958 208.292 114.629 208.329 114.304C208.366 113.979 208.467 113.665 208.626 113.379C208.784 113.093 208.998 112.841 209.254 112.637C209.51 112.434 209.804 112.283 210.119 112.193C210.433 112.103 210.762 112.077 211.087 112.114L269.809 118.829C270.464 118.904 271.062 119.237 271.473 119.754C271.883 120.27 272.071 120.929 271.996 121.584C271.921 122.24 271.589 122.838 271.073 123.249C270.557 123.66 269.899 123.849 269.243 123.775Z" fill="#E6E6E6"/>
<path d="M278.489 133.287L209.567 125.406C209.242 125.369 208.927 125.269 208.641 125.11C208.355 124.952 208.103 124.738 207.9 124.482C207.696 124.227 207.545 123.933 207.455 123.619C207.365 123.304 207.337 122.975 207.375 122.65C207.412 122.325 207.513 122.011 207.671 121.725C207.83 121.439 208.044 121.187 208.3 120.984C208.556 120.78 208.85 120.629 209.164 120.54C209.479 120.45 209.808 120.423 210.133 120.46L279.055 128.341C279.38 128.379 279.694 128.479 279.98 128.638C280.265 128.796 280.517 129.01 280.721 129.266C280.924 129.522 281.075 129.815 281.165 130.129C281.255 130.443 281.282 130.772 281.245 131.097C281.208 131.422 281.107 131.736 280.949 132.022C280.79 132.308 280.577 132.559 280.321 132.763C280.065 132.966 279.771 133.117 279.457 133.207C279.143 133.297 278.814 133.324 278.489 133.287Z" fill="#E6E6E6"/>
<path d="M276.568 149.933L174.955 138.314C174.3 138.239 173.701 137.906 173.291 137.389C172.881 136.873 172.692 136.214 172.767 135.559C172.842 134.903 173.174 134.305 173.691 133.894C174.207 133.483 174.865 133.294 175.521 133.368L277.133 144.988C277.458 145.024 277.773 145.125 278.059 145.283C278.345 145.442 278.597 145.655 278.801 145.911C279.004 146.167 279.156 146.461 279.246 146.775C279.336 147.09 279.363 147.419 279.326 147.744C279.289 148.069 279.188 148.383 279.029 148.669C278.87 148.955 278.657 149.207 278.401 149.41C278.144 149.613 277.851 149.764 277.536 149.854C277.222 149.944 276.893 149.971 276.568 149.933H276.568Z" fill="#E6E6E6"/>
<path d="M275.94 158.316L174.001 146.66C173.345 146.584 172.747 146.252 172.337 145.735C171.926 145.218 171.738 144.56 171.813 143.905C171.888 143.249 172.22 142.65 172.736 142.24C173.253 141.829 173.911 141.64 174.566 141.714L276.505 153.371C277.161 153.446 277.759 153.779 278.17 154.296C278.58 154.812 278.768 155.471 278.693 156.126C278.618 156.781 278.286 157.38 277.77 157.791C277.254 158.202 276.595 158.391 275.94 158.316V158.316Z" fill="#E6E6E6"/>
<path d="M274.698 166.288L173.085 154.668C172.76 154.631 172.445 154.531 172.159 154.372C171.873 154.214 171.621 154.001 171.417 153.745C171.214 153.489 171.063 153.195 170.973 152.881C170.882 152.566 170.855 152.237 170.892 151.912C170.929 151.587 171.03 151.273 171.189 150.987C171.348 150.701 171.561 150.449 171.818 150.246C172.074 150.042 172.367 149.891 172.682 149.802C172.997 149.712 173.326 149.685 173.651 149.722L275.263 161.342C275.919 161.417 276.517 161.75 276.927 162.267C277.338 162.783 277.526 163.442 277.451 164.097C277.376 164.753 277.044 165.351 276.528 165.762C276.011 166.173 275.353 166.362 274.698 166.288V166.288Z" fill="#E6E6E6"/>
<path d="M274.07 174.67L172.131 163.014C171.475 162.938 170.877 162.606 170.467 162.089C170.056 161.572 169.868 160.914 169.943 160.259C170.018 159.603 170.35 159.004 170.866 158.594C171.383 158.183 172.041 157.994 172.696 158.068L274.636 169.725C274.961 169.761 275.275 169.862 275.561 170.02C275.847 170.179 276.1 170.392 276.303 170.648C276.507 170.904 276.658 171.198 276.748 171.512C276.838 171.827 276.865 172.156 276.828 172.481C276.791 172.806 276.69 173.12 276.532 173.406C276.373 173.692 276.159 173.944 275.903 174.147C275.647 174.351 275.353 174.501 275.039 174.591C274.724 174.681 274.395 174.708 274.07 174.67V174.67Z" fill="#E6E6E6"/>
<path d="M195.98 127.691L175.199 125.315C174.885 125.278 174.598 125.119 174.401 124.871C174.204 124.623 174.113 124.308 174.149 123.993L176.264 105.495C176.3 105.181 176.46 104.894 176.708 104.697C176.955 104.5 177.271 104.409 177.586 104.445L198.366 106.821C198.681 106.858 198.968 107.017 199.165 107.265C199.362 107.513 199.452 107.828 199.417 108.143L197.301 126.641C197.265 126.955 197.106 127.242 196.858 127.439C196.61 127.636 196.295 127.726 195.98 127.691V127.691Z" fill="#FF881A"/>
<path d="M317.689 244.883H249.672C249.59 244.883 249.511 244.851 249.453 244.792C249.394 244.734 249.362 244.655 249.362 244.573C249.362 244.49 249.394 244.411 249.453 244.353C249.511 244.295 249.59 244.262 249.672 244.262H317.689C317.772 244.262 317.851 244.295 317.909 244.353C317.967 244.411 318 244.49 318 244.573C318 244.655 317.967 244.734 317.909 244.792C317.851 244.851 317.772 244.883 317.689 244.883Z" fill="#3F3D56"/>
<path d="M292.149 126.229C292.045 126.642 292.032 127.073 292.112 127.491C292.192 127.909 292.362 128.305 292.612 128.65C292.861 128.995 293.183 129.281 293.555 129.489C293.927 129.696 294.339 129.819 294.764 129.849L296.868 136.163L301.017 135.82L297.92 126.946C297.924 126.229 297.665 125.536 297.192 124.997C296.719 124.459 296.064 124.113 295.353 124.024C294.642 123.936 293.923 124.112 293.332 124.518C292.742 124.925 292.321 125.533 292.149 126.229V126.229Z" fill="#FFB8B8"/>
<path d="M295.327 167.576C295.813 168.022 296.408 168.333 297.053 168.475C297.697 168.618 298.368 168.589 298.998 168.39C299.627 168.19 300.193 167.829 300.638 167.341C301.083 166.853 301.391 166.257 301.532 165.612L304.818 150.557C305.38 147.983 305.247 145.305 304.434 142.799L300.589 130.942C300.534 130.772 300.442 130.616 300.321 130.484C300.2 130.352 300.052 130.248 299.887 130.179C299.722 130.11 299.544 130.078 299.365 130.084C299.186 130.09 299.011 130.134 298.851 130.214L296.341 131.471C296.081 131.601 295.875 131.818 295.759 132.085C295.642 132.351 295.623 132.65 295.704 132.929L295.957 133.799C298.062 141.036 298.172 148.706 296.277 156.001L294.233 163.868C294.062 164.527 294.073 165.22 294.266 165.873C294.458 166.527 294.825 167.115 295.327 167.576Z" fill="#FF881A"/>
<path d="M282.179 241.636L278.628 241.635L276.94 227.94L282.18 227.94L282.179 241.636Z" fill="#FFB8B8"/>
<path d="M276.092 240.621H282.939V244.932H271.78C271.78 244.366 271.892 243.805 272.108 243.282C272.325 242.759 272.643 242.284 273.043 241.883C273.443 241.483 273.919 241.165 274.442 240.949C274.965 240.732 275.526 240.621 276.092 240.621V240.621Z" fill="#2F2E41"/>
<path d="M301.317 241.636L297.767 241.635L296.078 227.94L301.318 227.94L301.317 241.636Z" fill="#FFB8B8"/>
<path d="M295.23 240.621H302.078V244.932H290.919C290.919 244.366 291.03 243.805 291.247 243.282C291.464 242.759 291.781 242.284 292.181 241.883C292.582 241.483 293.057 241.165 293.58 240.949C294.103 240.732 294.664 240.621 295.23 240.621V240.621Z" fill="#2F2E41"/>
<path d="M290.918 144.276C295.131 144.276 298.547 140.861 298.547 136.648C298.547 132.435 295.131 129.02 290.918 129.02C286.706 129.02 283.29 132.435 283.29 136.648C283.29 140.861 286.706 144.276 290.918 144.276Z" fill="#FFB8B8"/>
<path d="M264.835 186.396C264.889 185.974 265.034 185.568 265.261 185.208C265.488 184.848 265.791 184.542 266.149 184.311C266.507 184.081 266.911 183.932 267.333 183.875C267.755 183.817 268.184 183.853 268.591 183.98L272.854 178.87L276.591 180.703L270.47 187.835C270.212 188.504 269.717 189.055 269.08 189.384C268.443 189.712 267.708 189.796 267.013 189.618C266.319 189.441 265.713 189.015 265.312 188.421C264.911 187.827 264.741 187.107 264.835 186.396V186.396Z" fill="#FFB8B8"/>
<path d="M292.776 144.276C293.924 144.301 295.064 144.082 296.122 143.635C297.179 143.187 298.13 142.521 298.912 141.68C299.694 140.839 300.289 139.842 300.658 138.755C301.027 137.668 301.162 136.514 301.054 135.371C300.946 134.228 300.597 133.121 300.03 132.122C299.463 131.123 298.691 130.256 297.765 129.576C296.84 128.897 295.78 128.422 294.658 128.181C293.535 127.94 292.374 127.94 291.251 128.18C289.573 127.161 287.623 126.476 285.668 126.65C283.713 126.824 281.78 127.985 281.049 129.806C280.318 131.628 281.103 134.028 282.921 134.769C284.086 135.243 285.402 135.013 286.646 134.822C287.889 134.63 289.246 134.505 290.328 135.147C291.41 135.789 291.897 137.509 290.928 138.311C290.414 138.753 290.047 139.342 289.876 139.997C289.705 140.653 289.737 141.346 289.97 141.982C290.457 143.242 291.786 144.254 292.776 144.276Z" fill="#2F2E41"/>
<path d="M302.24 186.094L303.593 237.446C303.598 237.617 303.567 237.787 303.502 237.946C303.438 238.105 303.341 238.248 303.219 238.368C303.096 238.487 302.95 238.58 302.79 238.641C302.63 238.701 302.459 238.728 302.288 238.719L297.83 238.492C297.546 238.477 297.275 238.365 297.063 238.175C296.852 237.985 296.712 237.727 296.667 237.446L291.365 204.093C291.342 203.95 291.27 203.82 291.162 203.724C291.054 203.629 290.915 203.574 290.771 203.57C290.626 203.565 290.485 203.611 290.371 203.7C290.256 203.788 290.177 203.914 290.145 204.055L282.968 236.168C282.93 236.34 282.856 236.501 282.75 236.642C282.645 236.783 282.511 236.9 282.357 236.985C282.203 237.07 282.032 237.121 281.857 237.135C281.682 237.15 281.506 237.127 281.34 237.068L276.916 236.798C276.66 236.707 276.441 236.534 276.292 236.307C276.144 236.079 276.074 235.81 276.093 235.539L279.955 185.608L302.24 186.094Z" fill="#2F2E41"/>
<path d="M304.412 161.704C305.158 153.923 299.436 146.884 291.639 146.33C288.279 146.092 283.063 146.006 281.343 150.41C276.164 163.676 285.231 163.354 282.107 174.848C278.983 186.341 276.224 187 280.51 187.83C284.797 188.66 304.073 193.559 303.281 185.47C302.795 180.497 303.667 169.467 304.412 161.704Z" fill="#FF881A"/>
<path d="M282.882 149.061C283.497 148.822 284.165 148.751 284.817 148.853C285.469 148.955 286.083 149.227 286.596 149.643C287.11 150.058 287.505 150.601 287.741 151.217C287.977 151.834 288.047 152.502 287.942 153.154L285.508 168.369C285.091 170.971 283.991 173.416 282.319 175.453L274.412 185.088C274.299 185.226 274.157 185.339 273.996 185.417C273.835 185.495 273.659 185.538 273.48 185.542C273.302 185.546 273.124 185.512 272.96 185.441C272.795 185.37 272.648 185.264 272.529 185.131L270.65 183.046C270.456 182.83 270.343 182.552 270.332 182.262C270.321 181.971 270.412 181.686 270.59 181.456L271.143 180.738C275.743 174.768 278.645 167.667 279.542 160.184L280.51 152.114C280.591 151.438 280.855 150.796 281.273 150.258C281.69 149.721 282.247 149.307 282.882 149.061V149.061Z" fill="#FF881A"/>
</svg>
