<svg width="11" height="12" viewBox="0 0 11 12" fill="none" xmlns="http://www.w3.org/2000/svg">
<path d="M9.67098 4.89444H9.11957V4.35532C9.11957 4.12516 8.93498 3.9375 8.70754 3.9375C8.48057 3.9375 8.29551 4.12516 8.29551 4.35532V4.89444H7.74504C7.5176 4.89444 7.33301 5.0821 7.33301 5.31226C7.33301 5.54242 7.5176 5.73009 7.74504 5.73009H8.29551V6.26968C8.29551 6.49984 8.48057 6.6875 8.70754 6.6875C8.93498 6.6875 9.11957 6.49984 9.11957 6.26968V5.73009H9.67098C9.89795 5.73009 10.083 5.54242 10.083 5.31226C10.083 5.0821 9.89795 4.89444 9.67098 4.89444" fill="#FF881A"/>
<path d="M4.354 7.38184C2.49969 7.38184 0.916504 7.6783 0.916504 8.86276C0.916504 10.0467 2.49006 10.3539 4.354 10.3539C6.20786 10.3539 7.7915 10.0574 7.7915 8.87298C7.7915 7.68852 6.21795 7.38184 4.354 7.38184" fill="#FF881A"/>
<path opacity="0.4" d="M4.35413 6.25369C5.61664 6.25369 6.62867 5.22862 6.62867 3.94983C6.62867 2.67105 5.61664 1.64551 4.35413 1.64551C3.09162 1.64551 2.07959 2.67105 2.07959 3.94983C2.07959 5.22862 3.09162 6.25369 4.35413 6.25369" fill="#FF881A"/>
</svg>
