<svg width="55" height="55" viewBox="0 0 55 55" fill="none" xmlns="http://www.w3.org/2000/svg">
    <circle cx="27.5" cy="27.5" r="27.5" fill="#111723"/>
    <path fill-rule="evenodd" clip-rule="evenodd" d="M20.172 28c0-.78.13-1.527.36-2.228l-4.044-3.088A11.993 11.993 0 0 0 15.256 28c0 1.91.444 3.713 1.23 5.312l4.043-3.094A7.1 7.1 0 0 1 20.172 28z" fill="#fff"/>
    <path fill-rule="evenodd" clip-rule="evenodd" d="M27.273 20.91c1.693 0 3.223.6 4.425 1.58L35.193 19c-2.13-1.855-4.861-3-7.92-3-4.749 0-8.83 2.716-10.785 6.684l4.044 3.088a7.082 7.082 0 0 1 6.741-4.863zM27.273 35.091a7.082 7.082 0 0 1-6.74-4.863l-4.045 3.087A11.98 11.98 0 0 0 27.273 40c2.931 0 5.73-1.04 7.83-2.99l-3.84-2.968c-1.082.682-2.446 1.049-3.99 1.049zM38.744 28c0-.709-.11-1.473-.273-2.182H27.273v4.637h6.446c-.323 1.58-1.2 2.796-2.455 3.587l3.839 2.967c2.206-2.047 3.64-5.098 3.64-9.009z" fill="#fff"/>
</svg>
