<svg width="21" height="20" viewBox="0 0 21 20" fill="none" xmlns="http://www.w3.org/2000/svg">
    <path d="M19.25 10.194c0-.72-.059-1.244-.188-1.789H10.68v3.248H15.6c-.1.807-.635 2.022-1.825 2.838l-.017.11 2.65 2.011.184.019c1.687-1.527 2.659-3.773 2.659-6.437" fill="#4285F4"/>
    <path d="M10.679 18.75c2.41 0 4.434-.778 5.912-2.12l-2.817-2.138c-.754.515-1.766.875-3.095.875a5.365 5.365 0 0 1-5.08-3.637l-.104.01-2.756 2.09-.036.098c1.468 2.858 4.484 4.822 7.976 4.822z" fill="#34A853"/>
    <path d="M5.6 11.73A5.29 5.29 0 0 1 5.302 10c0-.603.11-1.186.288-1.73l-.005-.117-2.79-2.123-.092.042A8.616 8.616 0 0 0 1.751 10c0 1.41.347 2.742.952 3.928L5.6 11.73" fill="#FBBC05"/>
    <path d="M10.679 4.633c1.676 0 2.807.71 3.452 1.303l2.52-2.411C15.104 2.115 13.09 1.25 10.68 1.25c-3.492 0-6.508 1.964-7.976 4.822L5.59 8.27a5.387 5.387 0 0 1 5.089-3.636" fill="#EB4335"/>
</svg>
