<svg width="375" height="290" viewBox="0 0 375 290" fill="none" xmlns="http://www.w3.org/2000/svg">
<rect width="375" height="290" fill="white"/>
<path d="M104.735 161.096C91.0727 147.646 85.3022 133.614 88.4865 121.586C92.573 106.15 110.727 95.4774 138.294 92.3047L138.396 93.1901C111.213 96.3185 93.3355 106.751 89.348 121.814C86.249 133.52 91.9358 147.245 105.361 160.461L104.735 161.096Z" fill="#F0F0F0"/>
<path d="M236.558 208.839C219.506 208.839 200.976 206.305 182.57 201.433C159.81 195.407 138.94 186.312 122.219 175.13L122.714 174.39C139.355 185.517 160.132 194.571 182.798 200.571C203.282 205.994 223.919 208.507 242.471 207.844L242.504 208.734C240.544 208.804 238.562 208.839 236.558 208.839Z" fill="#F0F0F0"/>
<path d="M275.677 203.236L275.392 202.391C290.642 197.235 300.181 188.929 302.977 178.37C306.53 164.947 298.81 149.37 281.239 134.51C263.578 119.573 238.11 107.18 209.526 99.613L209.754 98.7515C238.463 106.352 264.054 118.809 281.814 133.829C299.663 148.925 307.485 164.824 303.838 178.598C300.962 189.46 291.225 197.979 275.677 203.236Z" fill="#F0F0F0"/>
<path d="M135.641 209.211C102.135 194.351 76.3158 175.072 62.9404 154.924L63.6827 154.431C76.9656 174.439 102.649 193.604 136.002 208.397L135.641 209.211Z" fill="#F0F0F0"/>
<path d="M253.445 234.956C249.989 234.956 246.474 234.879 242.9 234.725L242.939 233.834C269.611 234.989 293.144 231.797 310.999 224.602L311.332 225.429C295.757 231.705 275.905 234.956 253.445 234.956Z" fill="#F0F0F0"/>
<path d="M234.005 93.1039C228.467 91.3008 222.77 89.622 217.074 88.114C184.294 79.436 152.071 76.3548 123.887 79.2053L123.797 78.3186C152.086 75.4587 184.42 78.5473 217.302 87.2525C223.015 88.7649 228.727 90.4485 234.281 92.2568L234.005 93.1039Z" fill="#F0F0F0"/>
<path d="M83.7952 162.433C70.1324 148.983 64.362 134.951 67.5462 122.923C71.6327 107.487 89.7867 96.8143 117.353 93.6416L117.455 94.527C90.2723 97.6554 72.3952 108.088 68.4077 123.151C65.3087 134.856 70.9955 148.582 84.4204 161.798L83.7952 162.433Z" fill="#F0F0F0"/>
<path d="M215.617 210.176C198.566 210.176 180.036 207.642 161.63 202.769C138.869 196.743 118 187.648 101.278 176.467L101.774 175.726C118.415 186.853 139.191 195.907 161.858 201.907C182.342 207.331 202.979 209.843 221.531 209.18L221.563 210.07C219.604 210.141 217.622 210.176 215.617 210.176Z" fill="#F0F0F0"/>
<path d="M254.737 204.572L254.451 203.728C269.702 198.572 279.241 190.265 282.036 179.706C285.59 166.283 277.87 150.707 260.298 135.846C242.637 120.91 217.169 108.516 188.586 100.949L188.814 100.088C217.522 107.688 243.114 120.146 260.873 135.166C278.722 150.261 286.544 166.16 282.898 179.934C280.022 190.796 270.284 199.316 254.737 204.572Z" fill="#F0F0F0"/>
<path d="M114.7 210.548C81.1943 195.688 55.3753 176.408 42 156.261L42.7423 155.768C56.0252 175.776 81.7086 194.941 115.062 209.734L114.7 210.548Z" fill="#F0F0F0"/>
<path d="M232.505 236.293C229.049 236.293 225.534 236.215 221.96 236.061L221.998 235.171C248.67 236.326 272.203 233.134 290.058 225.938L290.391 226.765C274.816 233.041 254.964 236.293 232.505 236.293Z" fill="#F0F0F0"/>
<path d="M213.064 94.4403C207.526 92.6373 201.83 90.9585 196.134 89.4504C163.354 80.7724 131.13 77.6912 102.947 80.5418L102.857 79.655C131.146 76.7951 163.479 79.8837 196.362 88.5889C202.074 90.1013 207.787 91.7849 213.34 93.5932L213.064 94.4403Z" fill="#F0F0F0"/>
<path d="M57.188 138.565C63.5914 131.386 73.806 127.01 83.0626 129.63C74.523 135.673 68.3961 144.542 65.7662 154.668C64.7661 158.576 64.0607 163.028 60.81 165.418C58.7873 166.905 56.1072 167.26 53.6198 166.922C51.1322 166.583 48.7801 165.616 46.4598 164.657L45.8354 164.711C47.6306 155.26 50.7845 145.745 57.188 138.565Z" fill="#F2F2F2"/>
<path d="M83.0344 129.83C75.2952 131.703 68.3432 135.968 63.1658 142.018C62.0281 143.301 61.0997 144.755 60.4147 146.326C59.797 147.879 59.6063 149.569 59.8624 151.22C60.0703 152.764 60.4618 154.32 60.2906 155.888C60.1911 156.689 59.9233 157.461 59.5048 158.151C59.0863 158.842 58.5265 159.436 57.8622 159.895C56.2367 161.082 54.2816 161.614 52.3516 162.068C50.2087 162.572 47.975 163.062 46.2282 164.486C46.0165 164.659 45.7612 164.32 45.9725 164.148C49.0116 161.67 53.2353 161.988 56.5978 160.189C58.1668 159.349 59.4922 158.031 59.8145 156.223C60.0963 154.642 59.694 153.037 59.4699 151.475C59.1965 149.868 59.3207 148.218 59.8317 146.67C60.4344 145.069 61.3053 143.582 62.407 142.272C64.8403 139.285 67.7281 136.699 70.9647 134.608C74.6454 132.202 78.7106 130.444 82.9844 129.408C83.2489 129.344 83.2973 129.766 83.0345 129.83L83.0344 129.83Z" fill="white"/>
<path d="M64.7182 139.972C63.8211 138.965 63.3109 137.673 63.2788 136.325C63.2468 134.977 63.6948 133.661 64.5431 132.613C64.7154 132.402 65.0521 132.66 64.8795 132.872C64.0878 133.846 63.6706 135.071 63.703 136.326C63.7354 137.582 64.2155 138.784 65.0564 139.716C65.2389 139.919 64.8996 140.173 64.7182 139.972H64.7182Z" fill="white"/>
<path d="M59.6539 150.451C62.4039 150.633 65.1217 149.773 67.2654 148.04C67.4777 147.869 67.7331 148.207 67.5211 148.379C65.287 150.177 62.4568 151.067 59.5955 150.871C59.3228 150.852 59.3827 150.432 59.6539 150.451Z" fill="white"/>
<path d="M74.7407 132.757C75.0067 133.218 75.3832 133.607 75.8364 133.887C76.2896 134.167 76.8053 134.331 77.3372 134.362C77.61 134.378 77.5499 134.798 77.2789 134.782C76.6913 134.745 76.122 134.564 75.6206 134.255C75.1192 133.946 74.701 133.52 74.4025 133.012C74.3703 132.967 74.3567 132.911 74.3644 132.856C74.3721 132.8 74.4004 132.75 74.4438 132.715C74.4887 132.682 74.5451 132.667 74.6007 132.675C74.6563 132.683 74.7066 132.712 74.7407 132.757V132.757Z" fill="white"/>
<path d="M96.2027 159.434C96.0321 159.429 95.8615 159.424 95.6887 159.422C93.3944 159.37 91.0996 159.503 88.8271 159.822C88.651 159.844 88.4728 159.869 88.2977 159.896C82.8307 160.723 77.5648 162.558 72.7676 165.307C70.8597 166.403 69.0379 167.642 67.318 169.015C64.9429 170.91 62.5185 173.154 59.7379 174.125C59.4489 174.229 59.1537 174.316 58.8541 174.384L45.9499 165.469C45.9308 165.434 45.9094 165.401 45.8901 165.366L45.3586 165.034C45.4424 164.957 45.5309 164.879 45.6147 164.802C45.6631 164.757 45.7144 164.714 45.7628 164.669C45.7959 164.64 45.8293 164.611 45.8575 164.583C45.8685 164.573 45.8797 164.563 45.8887 164.556C45.9169 164.528 45.9462 164.505 45.9724 164.479C46.4661 164.042 46.9636 163.607 47.4651 163.175C47.4672 163.172 47.4672 163.172 47.4721 163.171C51.3016 159.889 55.4389 156.897 59.8986 154.628C60.0328 154.56 60.1689 154.489 60.309 154.425C62.325 153.413 64.4202 152.568 66.5738 151.898C67.7542 151.535 68.9523 151.232 70.1633 150.99C73.2938 150.371 76.5021 150.248 79.6708 150.626C85.9873 151.38 91.9924 154.146 95.9073 159.056C96.0074 159.181 96.1047 159.305 96.2027 159.434Z" fill="#F2F2F2"/>
<path d="M96.0605 159.577C88.753 156.414 80.6345 155.634 72.8582 157.347C71.1776 157.686 69.5609 158.288 68.0678 159.13C66.6397 159.998 65.4701 161.233 64.6805 162.705C63.9166 164.064 63.2926 165.541 62.2118 166.69C61.6499 167.27 60.9717 167.725 60.2218 168.024C59.4718 168.324 58.667 168.461 57.8602 168.428C55.8477 168.397 53.9663 167.645 52.152 166.845C50.1376 165.957 48.0593 165.003 45.8072 165.089C45.5343 165.099 45.5342 164.675 45.8067 164.665C49.725 164.516 52.9058 167.313 56.6741 167.901C58.4325 168.175 60.2841 167.921 61.63 166.671C62.8069 165.578 63.4518 164.055 64.2133 162.673C64.9626 161.225 66.055 159.983 67.3951 159.054C68.8406 158.138 70.4314 157.475 72.0993 157.093C75.8407 156.173 79.7036 155.847 83.5463 156.126C87.9338 156.421 92.2385 157.465 96.2741 159.211C96.5238 159.319 96.3087 159.685 96.0605 159.577V159.577Z" fill="white"/>
<path d="M75.3296 156.648C75.2193 155.304 75.5902 153.965 76.3761 152.87C77.162 151.774 78.3117 150.994 79.6199 150.668C79.8848 150.603 79.9984 151.011 79.7331 151.076C78.5143 151.378 77.4434 152.105 76.7137 153.127C75.984 154.148 75.6434 155.397 75.7536 156.648C75.7772 156.919 75.3531 156.918 75.3296 156.648Z" fill="white"/>
<path d="M64.9771 161.965C67.0628 163.767 69.751 164.716 72.5055 164.624C72.7784 164.614 72.7786 165.038 72.506 165.048C69.6394 165.139 66.844 164.145 64.6776 162.266C64.4712 162.086 64.7718 161.787 64.9771 161.965V161.965Z" fill="white"/>
<path d="M87.6763 156.921C87.6107 157.45 87.6774 157.987 87.8705 158.483C88.0636 158.98 88.3771 159.421 88.7827 159.767C88.9912 159.943 88.6904 160.242 88.4832 160.067C88.0369 159.683 87.6913 159.196 87.4767 158.647C87.2622 158.099 87.1851 157.507 87.2523 156.922C87.254 156.866 87.2769 156.813 87.3162 156.774C87.3556 156.734 87.4084 156.711 87.4641 156.709C87.5202 156.71 87.574 156.732 87.6137 156.772C87.6535 156.811 87.676 156.865 87.6763 156.921H87.6763Z" fill="white"/>
<path d="M308.097 197.42C304.479 188.506 296.33 180.951 286.731 180.307C292.743 188.869 295.532 199.281 294.606 209.702C294.234 213.72 293.402 218.149 295.661 221.493C297.066 223.573 299.471 224.809 301.927 225.326C304.384 225.843 306.924 225.722 309.432 225.599L310.002 225.86C311.488 216.355 311.715 206.334 308.097 197.42Z" fill="#F2F2F2"/>
<path d="M286.691 180.505C293.35 184.871 298.464 191.224 301.307 198.662C301.947 200.253 302.333 201.934 302.45 203.645C302.51 205.315 302.122 206.97 301.325 208.439C300.61 209.824 299.719 211.158 299.353 212.692C299.177 213.48 299.17 214.297 299.333 215.088C299.495 215.879 299.822 216.627 300.293 217.282C301.425 218.947 303.088 220.105 304.753 221.181C306.602 222.376 308.541 223.588 309.708 225.516C309.849 225.75 310.203 225.517 310.062 225.284C308.033 221.929 303.948 220.809 301.386 217.983C300.19 216.665 299.385 214.979 299.689 213.167C299.955 211.584 300.873 210.208 301.609 208.812C302.407 207.39 302.844 205.795 302.883 204.165C302.854 202.454 302.534 200.76 301.936 199.157C300.648 195.525 298.798 192.119 296.452 189.063C293.794 185.56 290.556 182.537 286.879 180.125C286.652 179.976 286.464 180.357 286.691 180.505V180.505Z" fill="white"/>
<path d="M300.532 196.213C301.716 195.567 302.63 194.521 303.114 193.262C303.597 192.003 303.617 190.614 303.17 189.342C303.079 189.085 302.675 189.215 302.767 189.472C303.185 190.656 303.166 191.95 302.714 193.121C302.261 194.292 301.405 195.263 300.3 195.859C300.06 195.988 300.294 196.342 300.532 196.213V196.213Z" fill="white"/>
<path d="M301.78 207.785C299.129 207.032 296.858 205.308 295.421 202.956C295.279 202.723 294.925 202.956 295.067 203.189C296.567 205.634 298.933 207.423 301.694 208.2C301.957 208.274 302.042 207.858 301.78 207.785V207.785Z" fill="white"/>
<path d="M293.518 186.049C293.112 186.394 292.627 186.634 292.106 186.745C291.585 186.857 291.045 186.838 290.533 186.689C290.271 186.612 290.186 187.027 290.447 187.104C291.013 187.266 291.61 187.287 292.186 187.164C292.762 187.042 293.299 186.781 293.751 186.403C293.796 186.371 293.828 186.323 293.839 186.269C293.851 186.214 293.841 186.157 293.812 186.11C293.781 186.063 293.732 186.031 293.677 186.019C293.622 186.008 293.565 186.018 293.518 186.049V186.049Z" fill="white"/>
<path d="M264.338 203.961C264.501 204.014 264.663 204.066 264.826 204.123C267.005 204.844 269.121 205.742 271.154 206.806C271.313 206.886 271.472 206.969 271.628 207.053C276.499 209.669 280.842 213.167 284.436 217.369C285.865 219.042 287.164 220.822 288.323 222.692C289.922 225.276 291.452 228.204 293.744 230.053C293.981 230.249 294.23 230.43 294.489 230.594L309.639 226.535C309.669 226.508 309.7 226.485 309.73 226.458L310.342 226.324C310.289 226.223 310.232 226.12 310.179 226.019C310.149 225.961 310.115 225.903 310.084 225.845C310.063 225.806 310.041 225.767 310.024 225.731C310.017 225.718 310.01 225.705 310.004 225.696C309.987 225.66 309.967 225.628 309.951 225.595C309.633 225.017 309.31 224.441 308.983 223.865C308.982 223.862 308.982 223.862 308.978 223.859C306.474 219.48 303.583 215.272 300.146 211.637C300.042 211.527 299.938 211.415 299.827 211.307C298.269 209.677 296.579 208.177 294.776 206.822C293.787 206.083 292.76 205.395 291.701 204.76C288.961 203.125 285.98 201.931 282.869 201.222C276.666 199.809 270.081 200.395 264.744 203.704C264.607 203.789 264.474 203.873 264.338 203.961Z" fill="#F2F2F2"/>
<path d="M264.424 204.144C272.37 203.621 280.278 205.615 287.026 209.842C288.495 210.726 289.815 211.837 290.938 213.132C291.992 214.429 292.678 215.985 292.927 217.637C293.19 219.173 293.281 220.775 293.913 222.22C294.247 222.955 294.733 223.611 295.339 224.145C295.944 224.679 296.656 225.079 297.427 225.319C299.333 225.966 301.358 225.89 303.335 225.747C305.531 225.588 307.809 225.388 309.901 226.225C310.155 226.327 310.298 225.928 310.044 225.826C306.404 224.369 302.468 225.935 298.722 225.221C296.973 224.889 295.315 224.027 294.467 222.398C293.726 220.973 293.631 219.321 293.378 217.764C293.159 216.148 292.548 214.611 291.598 213.286C290.544 211.938 289.269 210.778 287.826 209.858C284.612 207.734 281.083 206.128 277.37 205.1C273.139 203.903 268.734 203.439 264.346 203.728C264.074 203.746 264.154 204.162 264.424 204.144V204.144Z" fill="white"/>
<path d="M284.933 208.353C285.489 207.124 285.59 205.738 285.218 204.442C284.846 203.146 284.025 202.025 282.903 201.278C282.675 201.128 282.431 201.475 282.659 201.625C283.705 202.319 284.47 203.363 284.813 204.571C285.157 205.778 285.058 207.069 284.534 208.21C284.421 208.458 284.82 208.599 284.933 208.353H284.933Z" fill="white"/>
<path d="M292.896 216.84C290.327 217.836 287.476 217.826 284.913 216.813C284.659 216.713 284.516 217.112 284.77 217.213C287.439 218.262 290.406 218.266 293.078 217.223C293.332 217.124 293.15 216.741 292.896 216.84V216.84Z" fill="white"/>
<path d="M273.213 204.461C273.097 204.981 272.854 205.464 272.505 205.867C272.156 206.27 271.713 206.579 271.215 206.769C270.959 206.865 271.142 207.248 271.396 207.152C271.945 206.94 272.435 206.598 272.821 206.153C273.207 205.709 273.479 205.177 273.612 204.604C273.629 204.551 273.626 204.493 273.602 204.443C273.578 204.392 273.536 204.353 273.484 204.332C273.431 204.314 273.373 204.317 273.322 204.341C273.272 204.365 273.232 204.408 273.213 204.461V204.461Z" fill="white"/>
<path d="M237.908 227.773C239.876 227.773 241.472 226.177 241.472 224.209C241.472 222.24 239.876 220.645 237.908 220.645C235.939 220.645 234.343 222.24 234.343 224.209C234.343 226.177 235.939 227.773 237.908 227.773Z" fill="#FD6584"/>
<path d="M250.533 167.065C252.502 167.065 254.098 165.469 254.098 163.5C254.098 161.532 252.502 159.936 250.533 159.936C248.565 159.936 246.969 161.532 246.969 163.5C246.969 165.469 248.565 167.065 250.533 167.065Z" fill="#E6E6E6"/>
<path d="M184.21 68.197C186.178 68.197 187.774 66.6012 187.774 64.6327C187.774 62.6642 186.178 61.0684 184.21 61.0684C182.241 61.0684 180.645 62.6642 180.645 64.6327C180.645 66.6012 182.241 68.197 184.21 68.197Z" fill="#E6E6E6"/>
<path d="M109.517 201.36C109.517 202.267 109.547 203.174 109.611 204.074C109.678 205.15 109.794 206.218 109.95 207.278C110.477 210.848 111.485 214.331 112.945 217.632C113.02 217.796 113.094 217.96 113.169 218.125L113.281 218.371C113.318 218.453 113.359 218.535 113.397 218.614C113.449 218.722 113.498 218.827 113.55 218.931C113.613 219.062 113.677 219.193 113.744 219.323C113.751 219.338 113.759 219.357 113.77 219.376C113.826 219.488 113.878 219.596 113.938 219.708C113.949 219.732 113.962 219.756 113.975 219.779C114.039 219.906 114.106 220.036 114.173 220.163C114.248 220.298 114.319 220.436 114.394 220.57C114.573 220.903 114.76 221.231 114.95 221.56C115.006 221.657 115.062 221.754 115.122 221.851C115.174 221.941 115.226 222.03 115.282 222.12C115.32 222.18 115.357 222.243 115.394 222.303C115.454 222.404 115.514 222.501 115.577 222.602C115.715 222.822 115.857 223.042 115.995 223.262H115.999C116.063 223.363 116.13 223.464 116.197 223.561V223.565C116.395 223.864 116.6 224.162 116.806 224.457C116.806 224.457 116.807 224.457 116.807 224.458C116.808 224.458 116.808 224.458 116.808 224.458C116.809 224.459 116.809 224.459 116.809 224.46C116.809 224.46 116.809 224.461 116.809 224.461C116.974 224.7 117.145 224.931 117.313 225.163V225.167C117.426 225.312 117.534 225.462 117.646 225.607C117.735 225.727 117.829 225.85 117.922 225.969C117.941 225.996 117.963 226.018 117.982 226.044V226.048C118.008 226.081 118.034 226.111 118.06 226.145C118.456 226.653 118.864 227.149 119.285 227.635L119.352 227.713C119.375 227.739 119.401 227.765 119.423 227.795C119.46 227.836 119.494 227.877 119.531 227.919C119.565 227.96 119.602 228.001 119.64 228.042C121.833 230.512 124.319 232.705 127.044 234.572C127.406 234.822 127.776 235.065 128.145 235.3C128.239 235.36 128.332 235.42 128.425 235.476C128.452 235.494 128.481 235.513 128.508 235.532C128.56 235.562 128.608 235.592 128.661 235.625C128.709 235.655 128.758 235.685 128.81 235.715C129.008 235.838 129.209 235.957 129.411 236.077C129.46 236.107 129.512 236.137 129.564 236.167C129.613 236.193 129.665 236.223 129.717 236.252C129.717 236.256 129.717 236.256 129.721 236.256H129.725V236.26H129.728C129.979 236.406 130.233 236.547 130.49 236.686C130.628 236.76 130.77 236.839 130.912 236.91C131.233 237.085 131.558 237.253 131.883 237.414C131.999 237.47 132.118 237.526 132.234 237.585C132.331 237.63 132.428 237.679 132.525 237.724C132.555 237.739 132.581 237.75 132.607 237.765C132.689 237.802 132.768 237.839 132.85 237.877C132.94 237.918 133.029 237.959 133.115 238C133.216 238.045 133.313 238.09 133.414 238.131C133.787 238.299 134.164 238.459 134.541 238.612C135.893 239.166 137.274 239.645 138.678 240.046C138.742 240.065 138.809 240.083 138.876 240.102C139.478 240.27 140.082 240.423 140.691 240.561C141.755 240.808 142.829 241.009 143.913 241.166H143.921C144.051 241.185 144.178 241.204 144.309 241.222C144.32 241.222 144.332 241.226 144.346 241.226C144.346 241.23 144.346 241.23 144.35 241.226C144.492 241.245 144.638 241.263 144.78 241.282C144.789 241.285 144.799 241.286 144.809 241.286C144.944 241.304 145.082 241.319 145.216 241.334C145.362 241.349 145.508 241.364 145.653 241.379C145.765 241.39 145.877 241.401 145.989 241.413C145.999 241.416 146.009 241.417 146.019 241.416C146.12 241.424 146.221 241.435 146.322 241.442H146.337C146.422 241.45 146.512 241.457 146.598 241.465C147.64 241.547 148.685 241.584 149.746 241.584C150.892 241.584 152.031 241.54 153.155 241.442H153.166C153.408 241.42 153.647 241.398 153.886 241.375C153.95 241.368 154.01 241.364 154.073 241.357C154.084 241.357 154.099 241.353 154.11 241.353C154.129 241.349 154.148 241.349 154.17 241.345C154.18 241.346 154.19 241.345 154.2 241.342C154.282 241.334 154.364 241.323 154.45 241.316L154.73 241.282C154.824 241.271 154.917 241.256 155.01 241.245C155.033 241.241 155.051 241.241 155.074 241.237C155.141 241.23 155.208 241.218 155.275 241.207C155.309 241.204 155.343 241.2 155.372 241.196C155.44 241.185 155.503 241.177 155.57 241.166H155.574C157.623 240.871 159.645 240.416 161.623 239.803C161.727 239.77 161.832 239.74 161.937 239.706C161.94 239.706 161.944 239.703 161.948 239.703C161.978 239.691 162.011 239.684 162.041 239.673C162.321 239.583 162.597 239.49 162.874 239.393C163.255 239.266 163.632 239.128 164.009 238.986C164.11 238.945 164.21 238.907 164.311 238.866C164.517 238.788 164.718 238.706 164.92 238.623C165.263 238.485 165.607 238.34 165.947 238.19C166.264 238.048 166.578 237.907 166.891 237.757C166.899 237.753 166.91 237.754 166.917 237.746C166.988 237.712 167.059 237.679 167.127 237.645H167.13C168.85 236.82 170.508 235.873 172.093 234.811C172.6 234.471 173.101 234.12 173.594 233.758C173.989 233.463 174.378 233.165 174.766 232.858C176.682 231.335 178.455 229.64 180.064 227.795V227.792C180.18 227.665 180.288 227.534 180.4 227.403C180.419 227.385 180.434 227.366 180.449 227.351C180.52 227.265 180.587 227.183 180.658 227.101V227.097C180.751 226.989 180.845 226.877 180.934 226.765C180.957 226.739 180.975 226.716 180.994 226.694V226.69C181.069 226.601 181.14 226.511 181.214 226.418C181.252 226.373 181.285 226.328 181.323 226.283V226.279C181.543 226.003 181.756 225.727 181.969 225.443C182.025 225.368 182.081 225.29 182.14 225.212C182.409 224.849 182.671 224.48 182.924 224.11V224.106C183.022 223.968 183.115 223.826 183.212 223.688C183.305 223.546 183.399 223.404 183.492 223.262C183.585 223.113 183.682 222.968 183.776 222.818L183.787 222.796C183.88 222.654 183.974 222.505 184.063 222.359C184.134 222.239 184.205 222.124 184.276 222.008C184.321 221.93 184.369 221.851 184.414 221.769C184.432 221.744 184.448 221.718 184.463 221.691C184.567 221.508 184.672 221.325 184.776 221.142C184.9 220.929 185.019 220.712 185.139 220.496C185.183 220.406 185.232 220.317 185.28 220.227C185.299 220.197 185.314 220.167 185.329 220.137C185.385 220.033 185.441 219.924 185.493 219.816C185.549 219.712 185.605 219.603 185.661 219.495C185.714 219.391 185.77 219.282 185.822 219.174C185.863 219.092 185.9 219.01 185.941 218.928C185.944 218.921 185.948 218.915 185.953 218.909C185.971 218.868 185.99 218.83 186.005 218.793C186.009 218.787 186.013 218.781 186.016 218.774C186.057 218.692 186.094 218.606 186.136 218.524C186.188 218.416 186.236 218.304 186.289 218.196C186.322 218.121 186.36 218.043 186.393 217.964C186.442 217.856 186.494 217.748 186.539 217.636C186.591 217.524 186.64 217.412 186.688 217.296C186.702 217.268 186.715 217.239 186.725 217.21C186.752 217.158 186.77 217.105 186.793 217.053C186.852 216.915 186.912 216.773 186.968 216.635C187.035 216.478 187.099 216.318 187.159 216.161C187.218 216.015 187.274 215.866 187.33 215.716L187.353 215.664C188.223 213.373 188.883 211.007 189.324 208.596V208.592C189.573 207.216 189.751 205.828 189.858 204.433C189.862 204.354 189.869 204.28 189.873 204.205C189.94 203.26 189.97 202.312 189.97 201.36C189.97 200.938 189.963 200.52 189.952 200.102C189.691 191.356 186.572 182.936 181.072 176.13C180.953 175.981 180.833 175.832 180.71 175.682C180.587 175.533 180.46 175.387 180.337 175.242C176.244 170.448 171.082 166.684 165.266 164.251C159.451 161.819 153.146 160.787 146.859 161.239C140.572 161.69 134.479 163.613 129.071 166.851C123.664 170.09 119.093 174.554 115.727 179.883C115.544 180.174 115.361 180.469 115.185 180.764C115.006 181.063 114.834 181.361 114.662 181.664C111.28 187.677 109.508 194.461 109.517 201.36Z" fill="#F2F2F2"/>
<path d="M148.147 175.049C154.761 176.746 161.54 177.725 168.365 177.967C169.397 178.023 170.431 178.016 171.462 177.946C173.728 177.755 175.67 177.043 177.831 176.654C178.87 176.467 180.028 176.331 181.074 176.129C180.833 175.829 180.587 175.533 180.336 175.24C178.08 175.431 175.789 176.055 173.506 176.345C169.625 176.838 165.276 176.288 162.334 174.929C160.906 174.27 159.813 173.448 158.391 172.786C158.197 172.686 157.988 172.622 157.772 172.596C157.362 172.584 156.956 172.689 156.604 172.899C154.218 174.104 150.753 175.083 147.537 174.544C147.297 174.732 147.752 174.946 148.147 175.049Z" fill="white"/>
<path d="M133.915 179.288C133.886 179.283 133.857 179.279 133.827 179.274C133.951 179.197 134.067 179.109 134.175 179.012L133.915 179.288Z" fill="white"/>
<path d="M114.663 181.665C116.006 181.773 117.357 181.853 118.714 181.905C119.746 181.961 120.78 181.954 121.812 181.884C124.078 181.693 126.019 180.981 128.18 180.592C130.162 180.236 132.569 180.064 133.827 179.274C130.576 178.711 127.207 179.857 123.855 180.283C121.143 180.617 118.394 180.481 115.729 179.882C115.357 180.466 115.002 181.06 114.663 181.665Z" fill="white"/>
<path d="M130.912 236.909C131.233 237.085 131.558 237.253 131.883 237.413C131.999 237.469 132.118 237.525 132.234 237.585C132.331 237.63 132.428 237.678 132.525 237.723C132.555 237.738 132.581 237.749 132.607 237.764C132.689 237.802 132.768 237.839 132.85 237.876C132.94 237.917 133.029 237.958 133.115 237.999C133.216 238.044 133.313 238.089 133.414 238.13C133.787 238.298 134.164 238.459 134.541 238.612C135.893 239.166 137.274 239.645 138.678 240.046C138.742 240.064 138.809 240.083 138.876 240.102C139.478 240.27 140.082 240.423 140.691 240.561C141.755 240.807 142.829 241.009 143.913 241.166H143.921C144.051 241.184 144.178 241.203 144.309 241.222C144.32 241.222 144.332 241.226 144.346 241.226C144.346 241.229 144.346 241.229 144.35 241.226C144.492 241.244 144.638 241.263 144.78 241.282C144.789 241.284 144.799 241.286 144.809 241.285C144.944 241.304 145.082 241.319 145.216 241.334C145.362 241.349 145.508 241.364 145.653 241.379C145.765 241.39 145.877 241.401 145.989 241.412C145.999 241.416 146.009 241.417 146.019 241.416C146.12 241.423 146.221 241.435 146.322 241.442H146.337C146.422 241.45 146.512 241.457 146.598 241.465C147.64 241.547 148.685 241.584 149.746 241.584C150.892 241.584 152.031 241.539 153.155 241.442H153.166C153.408 241.42 153.647 241.397 153.886 241.375C153.95 241.367 154.01 241.364 154.073 241.356C154.084 241.356 154.099 241.352 154.11 241.352C154.129 241.349 154.148 241.349 154.17 241.345C154.18 241.345 154.19 241.344 154.2 241.341C154.282 241.334 154.364 241.323 154.45 241.315L154.73 241.282C154.824 241.27 154.917 241.255 155.01 241.244C155.033 241.24 155.051 241.24 155.074 241.237C155.141 241.229 155.208 241.218 155.275 241.207C155.309 241.203 155.343 241.199 155.372 241.196C155.44 241.184 155.503 241.177 155.57 241.166H155.574C157.623 240.871 159.646 240.415 161.623 239.803C161.727 239.769 161.832 239.739 161.937 239.706C161.454 237.457 160.462 235.35 159.036 233.546C157.609 231.743 155.788 230.291 153.711 229.303C154.225 228.814 154.58 228.182 154.73 227.489C154.827 227.042 154.835 226.58 154.753 226.13C154.671 225.681 154.501 225.251 154.252 224.868C153.768 224.124 153.008 223.603 152.139 223.419L146.605 222.261C145.715 222.088 144.791 222.273 144.036 222.776C143.281 223.28 142.755 224.061 142.573 224.95C142.516 225.222 142.491 225.5 142.498 225.779C137.17 229.326 133.335 233.004 130.912 236.909Z" fill="#FF881A"/>
<path d="M147.251 220.076C153.618 220.076 158.779 214.915 158.779 208.548C158.779 202.181 153.618 197.02 147.251 197.02C140.884 197.02 135.723 202.181 135.723 208.548C135.723 214.915 140.884 220.076 147.251 220.076Z" fill="#FFB8B8"/>
<path d="M140.065 218.487C138.836 217.647 137.58 216.034 136.742 214.824C135.632 213.234 134.868 211.429 134.499 209.525C134.131 207.621 134.167 205.661 134.605 203.772C134.744 203.016 135.087 202.313 135.597 201.738C136.14 201.201 137.027 200.946 137.69 201.326C137.509 200.842 137.429 200.326 137.456 199.81C137.482 199.293 137.614 198.788 137.843 198.325C138.309 197.399 138.984 196.596 139.815 195.977C141.403 194.754 143.293 193.983 145.284 193.748C147.274 193.512 149.292 193.82 151.122 194.638C151.842 194.972 150.659 192.395 151.413 192.643C152.162 192.933 152.994 192.918 153.732 192.602C154.441 192.246 156.791 194.366 156.519 193.62C157.057 193.864 157.524 194.241 157.878 194.714C158.231 195.188 158.459 195.743 158.54 196.328C158.621 196.914 158.552 197.51 158.341 198.062C158.129 198.613 157.781 199.102 157.33 199.483C156.735 199.986 155.992 200.275 155.341 200.701C154.199 201.504 153.391 202.697 153.069 204.055C152.748 205.413 152.934 206.842 153.594 208.072C152.908 207.632 152.156 207.305 151.367 207.104C150.97 207.008 150.557 207.007 150.16 207.102C149.764 207.198 149.396 207.386 149.087 207.652C148.829 207.948 148.634 208.293 148.514 208.666C148.394 209.04 148.352 209.434 148.39 209.824C148.416 210.606 148.602 211.377 148.623 212.16C148.684 214.456 149.914 218.821 148.134 220.041C146.729 221.004 141.744 219.634 140.065 218.487Z" fill="#2F2E41"/>
<path d="M155.178 150.845C154.935 150.844 154.695 150.796 154.471 150.702C154.136 150.568 153.851 150.335 153.65 150.036C153.45 149.736 153.345 149.384 153.349 149.023V147.199C153.349 146.816 153.197 146.449 152.926 146.178C152.655 145.908 152.288 145.755 151.906 145.755C151.424 145.754 150.962 145.563 150.621 145.222C150.281 144.881 150.089 144.419 150.088 143.938V118.938C150.089 118.456 150.281 117.994 150.621 117.653C150.962 117.313 151.424 117.121 151.905 117.121H234.732C235.214 117.121 235.675 117.313 236.016 117.653C236.357 117.994 236.548 118.456 236.549 118.938V143.938C236.548 144.419 236.357 144.881 236.016 145.222C235.675 145.563 235.214 145.754 234.732 145.755H161.603C161.413 145.754 161.225 145.791 161.05 145.864C160.875 145.937 160.715 146.043 160.582 146.178L156.451 150.308C156.285 150.477 156.087 150.612 155.868 150.704C155.65 150.796 155.415 150.844 155.178 150.845V150.845Z" fill="white"/>
<path d="M155.178 151.218C154.886 151.218 154.597 151.16 154.327 151.047C153.925 150.885 153.58 150.605 153.339 150.244C153.098 149.883 152.971 149.458 152.976 149.024V147.199C152.975 146.915 152.862 146.643 152.662 146.442C152.461 146.242 152.189 146.129 151.905 146.129C151.325 146.128 150.768 145.897 150.357 145.486C149.946 145.075 149.715 144.519 149.715 143.938V118.938C149.715 118.357 149.946 117.801 150.357 117.39C150.768 116.979 151.324 116.748 151.905 116.748H234.732C235.312 116.748 235.869 116.979 236.28 117.39C236.69 117.801 236.921 118.357 236.922 118.938V143.938C236.921 144.519 236.691 145.075 236.28 145.486C235.869 145.897 235.312 146.128 234.732 146.129H161.602C161.462 146.128 161.322 146.156 161.192 146.209C161.063 146.263 160.945 146.342 160.845 146.442L156.715 150.572C156.514 150.776 156.275 150.939 156.011 151.049C155.747 151.16 155.464 151.218 155.178 151.218V151.218ZM151.905 117.494C151.522 117.495 151.155 117.647 150.885 117.918C150.614 118.188 150.462 118.555 150.462 118.938V143.938C150.462 144.321 150.614 144.688 150.885 144.958C151.156 145.229 151.523 145.381 151.905 145.382C152.387 145.382 152.849 145.574 153.19 145.915C153.53 146.255 153.722 146.717 153.722 147.199V149.024C153.722 149.309 153.807 149.588 153.966 149.826C154.124 150.063 154.35 150.248 154.614 150.357C154.877 150.466 155.168 150.495 155.448 150.439C155.728 150.384 155.985 150.246 156.187 150.044L160.317 145.914C160.486 145.745 160.686 145.611 160.907 145.519C161.127 145.428 161.364 145.381 161.602 145.382H234.732C235.114 145.381 235.481 145.229 235.752 144.958C236.023 144.688 236.175 144.321 236.175 143.938V118.938C236.175 118.555 236.023 118.188 235.752 117.918C235.481 117.647 235.114 117.495 234.732 117.494L151.905 117.494Z" fill="#3F3D56"/>
<path d="M227.614 128.439H160.451C160.194 128.439 159.948 128.337 159.766 128.156C159.585 127.974 159.483 127.728 159.483 127.472C159.483 127.215 159.585 126.969 159.766 126.788C159.948 126.606 160.194 126.504 160.451 126.504H227.614C227.871 126.504 228.117 126.606 228.298 126.788C228.48 126.969 228.581 127.215 228.581 127.472C228.581 127.728 228.48 127.974 228.298 128.156C228.117 128.337 227.871 128.439 227.614 128.439Z" fill="#FF881A"/>
<path d="M227.491 132.549H160.451C160.194 132.549 159.948 132.447 159.766 132.266C159.585 132.084 159.483 131.838 159.483 131.582C159.483 131.325 159.585 131.079 159.766 130.898C159.948 130.716 160.194 130.614 160.451 130.614H227.491C227.747 130.614 227.993 130.716 228.175 130.898C228.356 131.079 228.458 131.325 228.458 131.582C228.458 131.838 228.356 132.084 228.175 132.266C227.993 132.447 227.747 132.549 227.491 132.549V132.549Z" fill="#E6E6E6"/>
<path d="M227.424 136.658H160.451C160.194 136.658 159.948 136.556 159.766 136.375C159.585 136.194 159.483 135.948 159.483 135.691C159.483 135.434 159.585 135.188 159.766 135.007C159.948 134.826 160.194 134.724 160.451 134.724H227.424C227.681 134.724 227.927 134.826 228.108 135.007C228.289 135.188 228.391 135.434 228.391 135.691C228.391 135.948 228.289 136.194 228.108 136.375C227.927 136.556 227.681 136.658 227.424 136.658V136.658Z" fill="#E6E6E6"/>
<path d="M333.383 113.241C333.383 114.148 333.353 115.056 333.29 115.956C333.222 117.031 333.107 118.099 332.95 119.159C332.423 122.73 331.416 126.213 329.955 129.513C329.881 129.677 329.806 129.842 329.731 130.006L329.619 130.253C329.582 130.335 329.541 130.417 329.504 130.495C329.451 130.603 329.403 130.708 329.35 130.813C329.287 130.943 329.224 131.074 329.156 131.205C329.149 131.22 329.141 131.238 329.13 131.257C329.074 131.369 329.022 131.477 328.962 131.589C328.951 131.614 328.939 131.637 328.925 131.66C328.861 131.787 328.794 131.918 328.727 132.045C328.652 132.179 328.581 132.317 328.507 132.452C328.327 132.784 328.141 133.113 327.95 133.441C327.894 133.538 327.838 133.635 327.779 133.732C327.726 133.822 327.674 133.912 327.618 134.001C327.581 134.061 327.543 134.124 327.506 134.184C327.446 134.285 327.386 134.382 327.323 134.483C327.185 134.703 327.043 134.924 326.905 135.144H326.901C326.838 135.245 326.77 135.345 326.703 135.443V135.446C326.505 135.745 326.3 136.044 326.095 136.339C326.094 136.339 326.094 136.339 326.093 136.339C326.093 136.339 326.092 136.339 326.092 136.34C326.092 136.34 326.091 136.34 326.091 136.341C326.091 136.341 326.091 136.342 326.091 136.342C325.927 136.581 325.755 136.813 325.587 137.044V137.048C325.475 137.194 325.366 137.343 325.254 137.489C325.165 137.608 325.071 137.731 324.978 137.851C324.959 137.877 324.937 137.899 324.918 137.926V137.929C324.892 137.963 324.866 137.993 324.84 138.026C324.444 138.534 324.036 139.031 323.615 139.516L323.548 139.595C323.526 139.621 323.5 139.647 323.477 139.677C323.44 139.718 323.406 139.759 323.369 139.8C323.335 139.841 323.298 139.882 323.261 139.923C321.068 142.393 318.581 144.586 315.856 146.454C315.494 146.704 315.125 146.946 314.755 147.182C314.662 147.241 314.568 147.301 314.475 147.357C314.449 147.376 314.419 147.395 314.393 147.413C314.34 147.443 314.292 147.473 314.24 147.507C314.191 147.536 314.143 147.566 314.09 147.596C313.892 147.719 313.691 147.839 313.489 147.958C313.441 147.988 313.388 148.018 313.336 148.048C313.287 148.074 313.235 148.104 313.183 148.134C313.183 148.138 313.183 148.138 313.179 148.138H313.175V148.141H313.172C312.922 148.287 312.668 148.429 312.41 148.567C312.272 148.642 312.13 148.72 311.988 148.791C311.667 148.966 311.342 149.134 311.017 149.295C310.902 149.351 310.782 149.407 310.666 149.467C310.569 149.512 310.472 149.56 310.375 149.605C310.345 149.62 310.319 149.631 310.293 149.646C310.211 149.683 310.132 149.721 310.05 149.758C309.961 149.799 309.871 149.84 309.785 149.881C309.684 149.926 309.587 149.971 309.486 150.012C309.113 150.18 308.736 150.341 308.359 150.494C307.007 151.048 305.626 151.526 304.222 151.927C304.158 151.946 304.091 151.965 304.024 151.983C303.423 152.151 302.818 152.305 302.209 152.443C301.145 152.689 300.071 152.891 298.987 153.048H298.979C298.849 153.066 298.722 153.085 298.591 153.104C298.58 153.104 298.569 153.107 298.554 153.107C298.554 153.111 298.554 153.111 298.55 153.107C298.408 153.126 298.263 153.145 298.121 153.163C298.111 153.166 298.101 153.167 298.091 153.167C297.956 153.186 297.818 153.201 297.684 153.216C297.538 153.231 297.393 153.245 297.247 153.26C297.135 153.272 297.023 153.283 296.911 153.294C296.901 153.297 296.891 153.299 296.881 153.298C296.78 153.305 296.679 153.316 296.579 153.324H296.564C296.478 153.331 296.388 153.339 296.302 153.346C295.261 153.428 294.215 153.466 293.155 153.466C292.008 153.466 290.87 153.421 289.746 153.324H289.734C289.492 153.301 289.253 153.279 289.014 153.257C288.95 153.249 288.891 153.245 288.827 153.238C288.816 153.238 288.801 153.234 288.79 153.234C288.771 153.231 288.752 153.231 288.73 153.227C288.72 153.227 288.71 153.226 288.7 153.223C288.618 153.216 288.536 153.204 288.45 153.197L288.17 153.163C288.077 153.152 287.983 153.137 287.89 153.126C287.868 153.122 287.849 153.122 287.826 153.118C287.759 153.111 287.692 153.1 287.625 153.089C287.591 153.085 287.558 153.081 287.528 153.077C287.461 153.066 287.397 153.059 287.33 153.048H287.326C285.277 152.753 283.255 152.297 281.277 151.685C281.173 151.651 281.068 151.621 280.964 151.588C280.96 151.588 280.956 151.584 280.952 151.584C280.923 151.573 280.889 151.565 280.859 151.554C280.579 151.464 280.303 151.371 280.026 151.274C279.646 151.147 279.269 151.009 278.891 150.867C278.791 150.826 278.69 150.789 278.589 150.748C278.384 150.669 278.182 150.587 277.98 150.505C277.637 150.367 277.293 150.221 276.954 150.072C276.636 149.93 276.323 149.788 276.009 149.639C276.001 149.635 275.99 149.635 275.983 149.627C275.912 149.594 275.841 149.56 275.774 149.527H275.77C274.05 148.701 272.392 147.754 270.808 146.693C270.3 146.353 269.8 146.002 269.307 145.64C268.911 145.345 268.523 145.046 268.134 144.74C266.219 143.216 264.445 141.521 262.836 139.677V139.673C262.72 139.546 262.612 139.415 262.5 139.285C262.481 139.266 262.466 139.247 262.451 139.232C262.38 139.147 262.313 139.064 262.242 138.982V138.978C262.149 138.87 262.056 138.758 261.966 138.646C261.944 138.62 261.925 138.598 261.906 138.575V138.571C261.832 138.482 261.761 138.392 261.686 138.299C261.649 138.254 261.615 138.209 261.578 138.165V138.161C261.357 137.884 261.144 137.608 260.932 137.324C260.876 137.25 260.82 137.171 260.76 137.093C260.491 136.731 260.23 136.361 259.976 135.991V135.988C259.879 135.85 259.785 135.708 259.688 135.569C259.595 135.428 259.502 135.286 259.408 135.144C259.315 134.995 259.218 134.849 259.124 134.7L259.113 134.677C259.02 134.535 258.927 134.386 258.837 134.24C258.766 134.121 258.695 134.005 258.624 133.889C258.579 133.811 258.531 133.732 258.486 133.65C258.468 133.625 258.452 133.599 258.437 133.572C258.333 133.389 258.228 133.206 258.124 133.023C258.001 132.81 257.881 132.594 257.762 132.377C257.717 132.287 257.668 132.198 257.62 132.108C257.601 132.078 257.586 132.049 257.571 132.019C257.515 131.914 257.459 131.806 257.407 131.698C257.351 131.593 257.295 131.485 257.239 131.376C257.187 131.272 257.131 131.164 257.078 131.055C257.037 130.973 257 130.891 256.959 130.809C256.956 130.802 256.952 130.796 256.948 130.79C256.929 130.749 256.91 130.712 256.895 130.674C256.891 130.669 256.887 130.662 256.884 130.656C256.843 130.574 256.806 130.488 256.765 130.406C256.712 130.297 256.664 130.185 256.612 130.077C256.578 130.002 256.541 129.924 256.507 129.846C256.459 129.737 256.406 129.629 256.361 129.517C256.309 129.405 256.261 129.293 256.212 129.177C256.198 129.149 256.186 129.121 256.175 129.091C256.149 129.039 256.13 128.987 256.108 128.934C256.048 128.796 255.988 128.654 255.932 128.516C255.865 128.359 255.801 128.199 255.742 128.042C255.682 127.896 255.626 127.747 255.57 127.598L255.547 127.546C254.678 125.254 254.018 122.888 253.576 120.477V120.474C253.327 119.097 253.149 117.709 253.042 116.314C253.038 116.236 253.031 116.161 253.027 116.086C252.96 115.142 252.93 114.193 252.93 113.241C252.93 112.819 252.938 112.401 252.949 111.983C253.209 103.237 256.328 94.8171 261.828 88.0117C261.947 87.8623 262.067 87.713 262.19 87.5636C262.313 87.4142 262.44 87.2686 262.563 87.123C266.656 82.3296 271.819 78.565 277.634 76.1326C283.449 73.7003 289.754 72.6684 296.041 73.12C302.328 73.5716 308.421 75.4942 313.829 78.7326C319.236 81.9711 323.808 86.4349 327.174 91.7642C327.357 92.0554 327.54 92.3504 327.715 92.6454C327.894 92.9441 328.066 93.2428 328.238 93.5452C331.62 99.5579 333.393 106.342 333.383 113.241V113.241Z" fill="#F2F2F2"/>
<path d="M294.754 86.9307C288.139 88.628 281.36 89.6064 274.536 89.8488C273.504 89.905 272.469 89.8979 271.438 89.8277C269.172 89.6371 267.231 88.9249 265.069 88.5357C264.03 88.3491 262.872 88.2127 261.826 88.011C262.068 87.7111 262.314 87.4148 262.564 87.1223C264.82 87.3129 267.111 87.9368 269.395 88.2267C273.276 88.7203 277.624 88.1695 280.566 86.8113C281.994 86.1522 283.087 85.3297 284.51 84.6676C284.703 84.5683 284.913 84.5041 285.129 84.478C285.539 84.4657 285.944 84.5708 286.296 84.781C288.683 85.9857 292.147 86.9648 295.364 86.4261C295.603 86.6137 295.148 86.8273 294.754 86.9307Z" fill="white"/>
<path d="M308.985 91.17C309.014 91.1647 309.044 91.1605 309.073 91.1554C308.95 91.0788 308.833 90.9912 308.726 90.8936L308.985 91.17Z" fill="white"/>
<path d="M328.237 93.5473C326.894 93.6546 325.544 93.7345 324.186 93.787C323.154 93.8427 322.12 93.8357 321.089 93.766C318.823 93.5744 316.882 92.8631 314.72 92.4739C312.739 92.1178 310.331 91.9463 309.073 91.1558C312.324 90.5931 315.693 91.7386 319.045 92.165C321.757 92.4984 324.506 92.3627 327.172 91.7637C327.543 92.3475 327.898 92.9421 328.237 93.5473Z" fill="white"/>
<path d="M288.62 130.843C295.293 130.843 300.702 125.313 300.702 118.492C300.702 111.671 295.293 106.141 288.62 106.141C281.947 106.141 276.538 111.671 276.538 118.492C276.538 125.313 281.947 130.843 288.62 130.843Z" fill="#FFB6B6"/>
<path d="M311.988 148.791C311.667 148.967 311.342 149.135 311.017 149.295C310.902 149.351 310.782 149.407 310.666 149.467C310.569 149.512 310.472 149.56 310.375 149.605C310.345 149.62 310.319 149.631 310.293 149.646C310.211 149.683 310.132 149.721 310.05 149.758C309.961 149.799 309.871 149.84 309.785 149.881C309.684 149.926 309.587 149.971 309.486 150.012C309.113 150.18 308.736 150.341 308.359 150.494C307.007 151.048 305.626 151.526 304.222 151.927C304.158 151.946 304.091 151.965 304.024 151.983C303.423 152.151 302.818 152.305 302.209 152.443C301.145 152.689 300.071 152.891 298.987 153.048H298.979C298.849 153.066 298.722 153.085 298.591 153.104C298.58 153.104 298.569 153.107 298.554 153.107C298.554 153.111 298.554 153.111 298.55 153.107C298.408 153.126 298.262 153.145 298.121 153.163C298.111 153.166 298.101 153.168 298.091 153.167C297.956 153.186 297.818 153.201 297.684 153.216C297.538 153.231 297.393 153.246 297.247 153.26C297.135 153.272 297.023 153.283 296.911 153.294C296.901 153.297 296.891 153.299 296.881 153.298C296.78 153.305 296.679 153.316 296.579 153.324H296.564C296.478 153.331 296.388 153.339 296.302 153.346C295.26 153.428 294.215 153.466 293.155 153.466C292.008 153.466 290.869 153.421 289.746 153.324H289.734C289.492 153.302 289.253 153.279 289.014 153.257C288.95 153.249 288.891 153.246 288.827 153.238C288.816 153.238 288.801 153.234 288.79 153.234C288.771 153.231 288.752 153.231 288.73 153.227C288.72 153.227 288.71 153.226 288.7 153.223C288.618 153.216 288.536 153.204 288.45 153.197L288.17 153.163C288.077 153.152 287.983 153.137 287.89 153.126C287.867 153.122 287.849 153.122 287.826 153.119C287.759 153.111 287.692 153.1 287.625 153.089C287.591 153.085 287.558 153.081 287.528 153.078C287.461 153.066 287.397 153.059 287.33 153.048H287.326C285.277 152.753 283.255 152.297 281.277 151.685C281.173 151.651 281.068 151.621 280.964 151.588C281.446 149.339 282.438 147.232 283.865 145.428C285.291 143.624 287.113 142.173 289.189 141.185C288.676 140.696 288.321 140.064 288.17 139.371C288.073 138.924 288.065 138.462 288.147 138.012C288.229 137.563 288.399 137.133 288.648 136.749C289.132 136.005 289.893 135.484 290.761 135.301L296.295 134.143C297.186 133.97 298.109 134.155 298.864 134.658C299.619 135.161 300.145 135.943 300.327 136.832C300.384 137.104 300.409 137.382 300.402 137.661C305.73 141.208 309.565 144.885 311.988 148.791Z" fill="#FF881A"/>
<path d="M320.95 113.135C318.897 110.74 317.92 107.563 316.278 104.843C314.637 102.124 311.78 99.6895 308.761 100.322C306.681 100.759 305.073 102.595 304.259 104.642C303.445 106.689 303.292 108.946 303.15 111.157C303.2 106.613 300.206 102.207 296.081 100.757C291.957 99.3069 287.022 100.924 284.43 104.575C283.299 103.527 281.823 102.93 280.281 102.898C278.74 102.866 277.24 103.4 276.066 104.4C273.748 106.472 273.235 110.415 274.939 113.058C276.644 115.7 280.336 116.685 283.045 115.219L284.003 116.1C283.464 117.986 284.51 120.213 286.267 120.923C287.692 121.499 289.704 121.403 290.238 122.898C290.61 123.943 289.914 125.059 289.173 125.862C288.432 126.665 287.552 127.494 287.463 128.605C287.329 130.282 289.061 131.457 290.636 131.81C294.434 132.663 298.648 130.905 300.837 127.553C300.879 127.488 300.925 127.424 300.975 127.359C302.203 125.788 303.098 123.984 303.605 122.056C304.112 120.128 304.221 118.116 303.925 116.145C303.802 115.37 303.926 114.794 304.46 114.61C306.768 113.818 313.236 115.482 315.193 116.986C317.151 118.49 318.718 120.481 320.603 122.082C322.489 123.683 324.892 124.918 327.286 124.482C329.203 124.133 330.834 122.741 331.931 121.062C333.028 119.383 333.66 117.426 334.225 115.481C329.985 117.93 324.183 116.905 320.95 113.135Z" fill="#2F2E41"/>
<path d="M72.9257 88.2246C72.9257 89.1319 72.9556 90.0392 73.019 90.939C73.0863 92.0144 73.202 93.0823 73.3588 94.1427C73.8859 97.7132 74.8931 101.196 76.3534 104.497C76.428 104.661 76.5027 104.825 76.5774 104.989L76.6894 105.236C76.7267 105.318 76.7678 105.4 76.8051 105.479C76.8574 105.587 76.906 105.691 76.9582 105.796C77.0217 105.927 77.0852 106.057 77.1524 106.188C77.1599 106.203 77.1673 106.222 77.1785 106.24C77.2345 106.352 77.2868 106.461 77.3466 106.573C77.3575 106.597 77.37 106.621 77.3839 106.644C77.4474 106.771 77.5146 106.901 77.5818 107.028C77.6565 107.163 77.7274 107.301 77.8021 107.435C77.9813 107.767 78.168 108.096 78.3584 108.425C78.4144 108.522 78.4704 108.619 78.5302 108.716C78.5824 108.805 78.6347 108.895 78.6907 108.985C78.7281 109.044 78.7654 109.108 78.8027 109.168C78.8625 109.268 78.9222 109.366 78.9857 109.466C79.1239 109.687 79.2657 109.907 79.4039 110.127H79.4076C79.4711 110.228 79.5383 110.329 79.6055 110.426V110.43C79.8034 110.728 80.0088 111.027 80.2141 111.322C80.2146 111.322 80.2151 111.322 80.2156 111.322C80.216 111.322 80.2165 111.323 80.2168 111.323C80.2172 111.323 80.2174 111.324 80.2176 111.324C80.2178 111.325 80.2179 111.325 80.2179 111.326C80.3822 111.565 80.5539 111.796 80.7219 112.028V112.031C80.8339 112.177 80.9422 112.326 81.0543 112.472C81.1439 112.592 81.2372 112.715 81.3306 112.834C81.3492 112.86 81.3716 112.883 81.3903 112.909V112.913C81.4164 112.946 81.4426 112.976 81.4687 113.01C81.8645 113.518 82.2727 114.014 82.6934 114.5L82.7606 114.578C82.783 114.604 82.8092 114.63 82.8316 114.66C82.8689 114.701 82.9025 114.742 82.9398 114.783C82.9734 114.824 83.0108 114.865 83.0481 114.907C85.241 117.377 87.7275 119.57 90.4523 121.437C90.8145 121.687 91.1841 121.93 91.5538 122.165C91.6471 122.225 91.7405 122.285 91.8338 122.341C91.86 122.359 91.8898 122.378 91.916 122.397C91.9682 122.426 92.0168 122.456 92.0691 122.49C92.1176 122.52 92.1661 122.55 92.2184 122.58C92.4163 122.703 92.6179 122.822 92.8196 122.942C92.8681 122.972 92.9204 123.001 92.9727 123.031C93.0212 123.057 93.0735 123.087 93.1257 123.117C93.1257 123.121 93.1257 123.121 93.1295 123.121H93.1332V123.125H93.1369C93.3871 123.27 93.641 123.412 93.8986 123.55C94.0368 123.625 94.1787 123.703 94.3206 123.774C94.6417 123.95 94.9665 124.118 95.2914 124.278C95.4071 124.334 95.5266 124.39 95.6423 124.45C95.7394 124.495 95.8365 124.544 95.9336 124.588C95.9635 124.603 95.9896 124.614 96.0157 124.629C96.0979 124.667 96.1763 124.704 96.2584 124.741C96.348 124.783 96.4376 124.824 96.5235 124.865C96.6243 124.909 96.7214 124.954 96.8222 124.995C97.1956 125.163 97.5727 125.324 97.9498 125.477C99.3013 126.031 100.682 126.51 102.087 126.911C102.15 126.929 102.218 126.948 102.285 126.967C102.886 127.135 103.491 127.288 104.099 127.426C105.164 127.673 106.238 127.874 107.322 128.031H107.329C107.46 128.05 107.587 128.068 107.718 128.087C107.729 128.087 107.74 128.091 107.755 128.091C107.755 128.094 107.755 128.094 107.759 128.091C107.901 128.109 108.046 128.128 108.188 128.147C108.198 128.15 108.208 128.151 108.218 128.15C108.352 128.169 108.49 128.184 108.625 128.199C108.771 128.214 108.916 128.229 109.062 128.244C109.174 128.255 109.286 128.266 109.398 128.277C109.407 128.281 109.418 128.282 109.428 128.281C109.528 128.289 109.629 128.3 109.73 128.307H109.745C109.831 128.315 109.921 128.322 110.006 128.33C111.048 128.412 112.094 128.449 113.154 128.449C114.3 128.449 115.439 128.404 116.563 128.307H116.574C116.817 128.285 117.056 128.262 117.295 128.24C117.358 128.233 117.418 128.229 117.482 128.221C117.493 128.221 117.508 128.218 117.519 128.218C117.538 128.214 117.556 128.214 117.579 128.21C117.589 128.211 117.599 128.209 117.609 128.206C117.691 128.199 117.773 128.188 117.859 128.18L118.139 128.147C118.232 128.135 118.325 128.121 118.419 128.109C118.441 128.106 118.46 128.106 118.482 128.102C118.549 128.094 118.617 128.083 118.684 128.072C118.717 128.068 118.751 128.065 118.781 128.061C118.848 128.05 118.912 128.042 118.979 128.031H118.983C121.031 127.736 123.054 127.28 125.031 126.668C125.136 126.635 125.24 126.605 125.345 126.571C125.349 126.571 125.352 126.567 125.356 126.567C125.386 126.556 125.42 126.549 125.45 126.537C125.73 126.448 126.006 126.354 126.282 126.257C126.663 126.13 127.04 125.992 127.417 125.85C127.518 125.809 127.619 125.772 127.72 125.731C127.925 125.653 128.127 125.57 128.328 125.488C128.672 125.35 129.015 125.204 129.355 125.055C129.673 124.913 129.986 124.771 130.3 124.622C130.307 124.618 130.318 124.618 130.326 124.611C130.397 124.577 130.468 124.544 130.535 124.51H130.539C132.258 123.685 133.917 122.738 135.501 121.676C136.009 121.336 136.509 120.985 137.002 120.623C137.398 120.328 137.786 120.029 138.174 119.723C140.09 118.199 141.864 116.505 143.473 114.66V114.656C143.589 114.529 143.697 114.399 143.809 114.268C143.827 114.249 143.842 114.231 143.857 114.216C143.928 114.13 143.996 114.048 144.066 113.966V113.962C144.16 113.854 144.253 113.742 144.343 113.63C144.365 113.603 144.384 113.581 144.402 113.559V113.555C144.477 113.465 144.548 113.376 144.623 113.282C144.66 113.238 144.694 113.193 144.731 113.148V113.144C144.951 112.868 145.164 112.592 145.377 112.308C145.433 112.233 145.489 112.155 145.549 112.076C145.818 111.714 146.079 111.344 146.333 110.975V110.971C146.43 110.833 146.523 110.691 146.62 110.553C146.714 110.411 146.807 110.269 146.9 110.127C146.994 109.978 147.091 109.832 147.184 109.683L147.195 109.661C147.289 109.519 147.382 109.369 147.472 109.224C147.543 109.104 147.614 108.988 147.685 108.873C147.729 108.794 147.778 108.716 147.823 108.634C147.84 108.608 147.856 108.582 147.871 108.555C147.976 108.372 148.08 108.189 148.185 108.006C148.308 107.794 148.428 107.577 148.547 107.36C148.592 107.271 148.64 107.181 148.689 107.092C148.708 107.062 148.723 107.032 148.737 107.002C148.793 106.897 148.849 106.789 148.902 106.681C148.958 106.576 149.014 106.468 149.07 106.36C149.122 106.255 149.178 106.147 149.23 106.039C149.271 105.957 149.309 105.874 149.35 105.792C149.353 105.786 149.356 105.779 149.361 105.774C149.38 105.733 149.398 105.695 149.413 105.658C149.418 105.652 149.422 105.646 149.424 105.639C149.466 105.557 149.503 105.471 149.544 105.389C149.596 105.281 149.645 105.169 149.697 105.06C149.731 104.986 149.768 104.907 149.802 104.829C149.85 104.721 149.902 104.612 149.947 104.5C150 104.388 150.048 104.276 150.097 104.161C150.111 104.133 150.123 104.104 150.134 104.075C150.16 104.022 150.179 103.97 150.201 103.918C150.261 103.78 150.321 103.638 150.377 103.5C150.444 103.343 150.507 103.182 150.567 103.025C150.627 102.88 150.683 102.731 150.739 102.581L150.761 102.529C151.631 100.237 152.291 97.8717 152.733 95.4608V95.457C152.982 94.0806 153.16 92.6922 153.267 91.2975C153.27 91.2191 153.278 91.1444 153.282 91.0698C153.349 90.1251 153.379 89.1767 153.379 88.2246C153.379 87.8027 153.371 87.3845 153.36 86.9663C153.099 78.2203 149.981 69.8005 144.481 62.9951C144.361 62.8457 144.242 62.6963 144.119 62.547C143.996 62.3976 143.869 62.252 143.745 62.1064C139.652 57.313 134.49 53.5483 128.675 51.116C122.86 48.6837 116.555 47.6518 110.268 48.1034C103.981 48.555 97.8876 50.4776 92.4799 53.716C87.0722 56.9545 82.5011 61.4183 79.1351 66.7476C78.9521 67.0388 78.7692 67.3338 78.5937 67.6288C78.4145 67.9275 78.2427 68.2262 78.0709 68.5286C74.6883 74.5413 72.916 81.3257 72.9257 88.2246V88.2246Z" fill="#F2F2F2"/>
<path d="M111.555 61.9136C118.17 63.6109 124.948 64.5893 131.773 64.8317C132.805 64.8879 133.84 64.8809 134.871 64.8106C137.137 64.62 139.078 63.9078 141.24 63.5186C142.279 63.332 143.437 63.1956 144.483 62.9939C144.241 62.694 143.995 62.3978 143.745 62.1052C141.488 62.2958 139.197 62.9197 136.914 63.2096C133.033 63.7032 128.685 63.1524 125.742 61.7942C124.315 61.1351 123.222 60.3126 121.799 59.6505C121.606 59.5512 121.396 59.487 121.18 59.4609C120.77 59.4486 120.365 59.5537 120.013 59.7639C117.626 60.9686 114.161 61.9477 110.945 61.409C110.705 61.5966 111.161 61.8102 111.555 61.9136Z" fill="white"/>
<path d="M97.3237 66.1534C97.2943 66.1481 97.2649 66.1439 97.2355 66.1388C97.359 66.0622 97.4753 65.9746 97.583 65.877L97.3237 66.1534Z" fill="white"/>
<path d="M78.0717 68.5302C79.4148 68.6375 80.7651 68.7174 82.1223 68.7699C83.1543 68.8257 84.1888 68.8186 85.22 68.7489C87.486 68.5573 89.4271 67.8461 91.5888 67.4568C93.57 67.1007 95.9775 66.9292 97.2354 66.1387C93.9843 65.576 90.6158 66.7216 87.2633 67.1479C84.5516 67.4813 81.8027 67.3456 79.137 66.7466C78.7658 67.3304 78.4107 67.925 78.0717 68.5302Z" fill="white"/>
<path d="M94.3206 123.774C94.6417 123.95 94.9665 124.118 95.2914 124.279C95.4071 124.335 95.5266 124.391 95.6423 124.45C95.7394 124.495 95.8365 124.544 95.9336 124.588C95.9634 124.603 95.9896 124.615 96.0157 124.63C96.0979 124.667 96.1763 124.704 96.2584 124.742C96.348 124.783 96.4376 124.824 96.5235 124.865C96.6243 124.91 96.7214 124.954 96.8222 124.995C97.1956 125.163 97.5727 125.324 97.9498 125.477C99.3013 126.031 100.682 126.51 102.087 126.911C102.15 126.93 102.218 126.948 102.285 126.967C102.886 127.135 103.491 127.288 104.099 127.426C105.164 127.673 106.238 127.874 107.322 128.031H107.329C107.46 128.05 107.587 128.068 107.718 128.087C107.729 128.087 107.74 128.091 107.755 128.091C107.755 128.094 107.755 128.094 107.759 128.091C107.901 128.109 108.046 128.128 108.188 128.147C108.198 128.15 108.208 128.151 108.218 128.151C108.352 128.169 108.49 128.184 108.625 128.199C108.771 128.214 108.916 128.229 109.062 128.244C109.174 128.255 109.286 128.266 109.398 128.277C109.407 128.281 109.418 128.282 109.428 128.281C109.528 128.289 109.629 128.3 109.73 128.307H109.745C109.831 128.315 109.921 128.322 110.006 128.33C111.048 128.412 112.094 128.449 113.154 128.449C114.3 128.449 115.439 128.404 116.563 128.307H116.574C116.817 128.285 117.056 128.263 117.295 128.24C117.358 128.233 117.418 128.229 117.482 128.221C117.493 128.221 117.508 128.218 117.519 128.218C117.538 128.214 117.556 128.214 117.579 128.21C117.589 128.211 117.599 128.209 117.608 128.207C117.691 128.199 117.773 128.188 117.859 128.18L118.139 128.147C118.232 128.136 118.325 128.121 118.419 128.109C118.441 128.106 118.46 128.106 118.482 128.102C118.549 128.094 118.617 128.083 118.684 128.072C118.717 128.068 118.751 128.065 118.781 128.061C118.848 128.05 118.912 128.042 118.979 128.031H118.983C121.031 127.736 123.054 127.28 125.031 126.668C125.136 126.635 125.24 126.605 125.345 126.571C124.863 124.323 123.87 122.215 122.444 120.412C121.018 118.608 119.196 117.156 117.119 116.169C117.633 115.679 117.988 115.047 118.139 114.354C118.236 113.907 118.243 113.446 118.161 112.996C118.079 112.546 117.909 112.117 117.661 111.733C117.176 110.989 116.416 110.468 115.547 110.284L110.014 109.127C109.123 108.953 108.2 109.138 107.445 109.641C106.69 110.145 106.164 110.926 105.981 111.815C105.925 112.088 105.9 112.366 105.907 112.644C100.578 116.191 96.7438 119.869 94.3206 123.774Z" fill="#FF881A"/>
<path d="M116.211 105.391C123.65 105.391 129.681 99.361 129.681 91.9222C129.681 84.4835 123.65 78.4531 116.211 78.4531C108.773 78.4531 102.742 84.4835 102.742 91.9222C102.742 99.361 108.773 105.391 116.211 105.391Z" fill="#9E616A"/>
<path d="M114.298 104.672C110.926 105.582 107.208 104.371 104.577 102.075C101.945 99.7781 100.299 96.5236 99.3504 93.1621C98.6558 90.7002 98.3264 87.9673 99.4226 85.656C100.519 83.3448 103.469 81.7854 105.745 82.9529C104.341 81.317 105.042 78.6113 106.682 77.2119C108.322 75.8124 110.574 75.4112 112.719 75.1919C115.831 74.8736 119.046 74.8379 122.008 75.8463C124.97 76.8546 127.661 79.0592 128.588 82.0475C129.535 82.4883 130.601 82.6026 131.619 82.3726C132.638 82.1426 133.552 81.5813 134.217 80.7765C134.389 81.7008 134.251 82.6559 133.825 83.494C133.399 84.3321 132.709 85.0065 131.861 85.4128L136.399 83.9416C137.18 85.5935 135.812 87.6381 134.063 88.1671C132.315 88.6961 130.427 88.1179 128.767 87.3536C127.108 86.5893 125.5 85.6231 123.697 85.325C121.895 85.0269 119.777 85.6061 118.943 87.2318C118.507 88.0833 118.484 89.0805 118.23 90.0032C117.977 90.926 117.335 91.8827 116.381 91.9582C115.778 92.0059 115.188 91.6849 114.587 91.7505C114.218 91.8231 113.878 92.0017 113.609 92.2644C113.341 92.5271 113.154 92.8626 113.073 93.2296C112.923 93.9662 112.922 94.7252 113.068 95.4624L114.22 104.274L114.298 104.672Z" fill="#2F2E41"/>
</svg>
