<svg width="12" height="12" viewBox="0 0 12 12" fill="none" xmlns="http://www.w3.org/2000/svg">
    <path opacity=".4" d="M6.875 4.851v-1.01a.36.36 0 0 1-.362-.352V2.287c0-.16-.131-.287-.295-.287H2.896C1.85 2 1 2.826 1 3.841v1.216c0 .095.039.184.106.25a.37.37 0 0 0 .257.103c.367 0 .648.253.648.587a.637.637 0 0 1-.644.63c-.198 0-.367.136-.367.333v1.203C1 9.177 1.851 10 2.89 10h3.328a.29.29 0 0 0 .295-.287V8.698c0-.197.164-.352.362-.352v-.911a.36.36 0 0 1-.362-.353V5.204a.36.36 0 0 1 .362-.353z" fill="#0A84FF"/>
    <path d="M9.99 5.997c0 .348.29.625.642.63.199 0 .368.136.368.329v1.207C11 9.178 10.153 10 9.109 10H7.533a.292.292 0 0 1-.295-.287V8.698a.354.354 0 0 0-.363-.352v-.91c.203 0 .363-.16.363-.353V5.204a.357.357 0 0 0-.363-.352v-1.01c.203 0 .363-.16.363-.353V2.287c0-.16.135-.287.295-.287h1.576c1.044 0 1.89.822 1.89 1.837V5.02a.346.346 0 0 1-.106.25.368.368 0 0 1-.256.103.638.638 0 0 0-.648.624z" fill="#0A84FF"/>
</svg>
