<svg width="32" height="32" viewBox="0 0 32 32" fill="none" xmlns="http://www.w3.org/2000/svg">
    <circle cx="16" cy="16" r="14" fill="#1ED760"/>
    <path d="M22.364 21.623c-.239.38-.75.486-1.148.258-3.141-1.822-7.08-2.232-11.736-1.23-.446.091-.893-.167-.988-.592a.786.786 0 0 1 .621-.94c5.087-1.11 9.456-.639 12.964 1.41a.772.772 0 0 1 .287 1.094zm1.627-3.461c-.303.47-.941.607-1.435.334-3.588-2.11-9.058-2.718-13.299-1.488-.558.152-1.132-.137-1.292-.653-.16-.531.144-1.078.702-1.23 4.848-1.396 10.875-.728 15.005 1.686.462.273.622.88.319 1.35zm.143-3.613c-4.305-2.43-11.4-2.657-15.515-1.473-.654.197-1.355-.152-1.563-.79-.207-.622.176-1.29.83-1.487 4.72-1.366 12.565-1.093 17.508 1.7.59.334.781 1.063.43 1.625-.334.576-1.1.774-1.69.425z" fill="#fff"/>
</svg>
