<svg width="12" height="12" viewBox="0 0 12 12" fill="none" xmlns="http://www.w3.org/2000/svg">
    <path fill-rule="evenodd" clip-rule="evenodd" d="M4.266 1.468a3.445 3.445 0 0 1 3.517.03A3.665 3.665 0 0 1 9.5 4.63c-.025 1.27-.723 2.464-1.596 3.387a9.363 9.363 0 0 1-1.68 1.41.587.587 0 0 1-.203.072.41.41 0 0 1-.196-.06 9.257 9.257 0 0 1-2.419-2.273 4.64 4.64 0 0 1-.906-2.6c0-1.28.673-2.464 1.766-3.099zm.631 3.63c.184.452.618.748 1.099.748a1.17 1.17 0 0 0 .841-.35c.224-.227.349-.536.348-.857a1.212 1.212 0 0 0-.731-1.122 1.173 1.173 0 0 0-1.297.26c-.341.346-.444.867-.26 1.32z" fill="#FF881A"/>
    <ellipse opacity=".4" cx="6" cy="10.5" rx="2.5" ry=".5" fill="#FF881A"/>
</svg>
