<svg width="12" height="12" viewBox="0 0 12 12" fill="none" xmlns="http://www.w3.org/2000/svg">
<path fill-rule="evenodd" clip-rule="evenodd" d="M1.5 8.43492V4.62842H10.5V8.46542C10.5 10.0349 9.51207 10.9999 7.93139 10.9999H4.06367C2.4978 10.9999 1.5 10.0149 1.5 8.43492ZM3.97969 7.20492C3.75247 7.21542 3.56476 7.03492 3.55488 6.80542C3.55488 6.57542 3.73271 6.38542 3.95993 6.37492C4.18222 6.37492 4.36498 6.55042 4.36992 6.77492C4.3798 7.00542 4.20198 7.19542 3.97969 7.20492ZM6.00988 7.20492C5.78266 7.21542 5.59495 7.03492 5.58507 6.80542C5.58507 6.57542 5.7629 6.38542 5.99012 6.37492C6.2124 6.37492 6.39517 6.55042 6.40011 6.77492C6.40999 7.00542 6.23216 7.19542 6.00988 7.20492ZM8.02525 9.04492C7.79802 9.03992 7.61526 8.84992 7.61526 8.61992C7.61032 8.38992 7.79308 8.20042 8.02031 8.19542H8.02525C8.25741 8.19542 8.44512 8.38542 8.44512 8.61992C8.44512 8.85492 8.25741 9.04492 8.02525 9.04492ZM5.58507 8.61992C5.59495 8.84992 5.78266 9.03042 6.00988 9.01992C6.23216 9.01042 6.40999 8.82042 6.40011 8.59042C6.39517 8.36542 6.2124 8.18992 5.99012 8.18992C5.7629 8.20042 5.58507 8.38992 5.58507 8.61992ZM3.54995 8.61992C3.55982 8.84992 3.74753 9.03042 3.97475 9.01992C4.19704 9.01042 4.37486 8.82042 4.36498 8.59042C4.36004 8.36542 4.17728 8.18992 3.95499 8.18992C3.72777 8.20042 3.54995 8.38992 3.54995 8.61992ZM7.6202 6.80042C7.6202 6.57042 7.79802 6.38542 8.02525 6.38042C8.24753 6.38042 8.42536 6.55992 8.43524 6.78042C8.44018 7.01042 8.26235 7.20042 8.04007 7.20492C7.81284 7.20992 7.62514 7.03492 7.6202 6.80542V6.80042Z" fill="#0A84FF"/>
<path opacity="0.4" d="M1.50171 4.62837C1.50813 4.33487 1.53283 3.75237 1.57926 3.56487C1.81636 2.51037 2.62152 1.84037 3.77246 1.74487H8.228C9.36905 1.84537 10.1841 2.51987 10.4212 3.56487C10.4671 3.74737 10.4918 4.33437 10.4983 4.62837H1.50171Z" fill="#0A84FF"/>
<path d="M4.15245 3.295C4.36979 3.295 4.5328 3.1305 4.5328 2.91V1.3855C4.5328 1.165 4.36979 1 4.15245 1C3.9351 1 3.77209 1.165 3.77209 1.3855V2.91C3.77209 3.1305 3.9351 3.295 4.15245 3.295Z" fill="#0A84FF"/>
<path d="M7.84745 3.295C8.05986 3.295 8.22781 3.1305 8.22781 2.91V1.3855C8.22781 1.165 8.05986 1 7.84745 1C7.63011 1 7.4671 1.165 7.4671 1.3855V2.91C7.4671 3.1305 7.63011 3.295 7.84745 3.295Z" fill="#0A84FF"/>
</svg>
