<svg width="24" height="24" viewBox="0 0 24 24" fill="none" xmlns="http://www.w3.org/2000/svg">
    <rect x="1.5" y="1.5" width="21" height="21" rx="10.5" fill="#1275B1"/>
    <path d="M9.464 7.27c0 .7-.608 1.268-1.357 1.268-.75 0-1.357-.568-1.357-1.269C6.75 6.57 7.358 6 8.107 6c.75 0 1.357.568 1.357 1.27zM6.936 9.471h2.32V16.5h-2.32V9.471zM12.99 9.471h-2.32V16.5h2.32v-3.596c0-.83.283-1.665 1.415-1.665 1.278 0 1.27 1.087 1.265 1.929-.008 1.1.01 2.223.01 3.332H18v-3.71c-.02-2.368-.637-3.46-2.668-3.46-1.206 0-1.953.548-2.342 1.043V9.47z" fill="#fff"/>
</svg>
