<svg width="24" height="25" viewBox="0 0 24 25" fill="none" xmlns="http://www.w3.org/2000/svg">
    <path d="m19.447 5-.011.005a.542.542 0 0 0-.103.018l-.015.004a.56.56 0 0 0-.03.011L4.343 10.052a.509.509 0 0 0-.307.285.487.487 0 0 0 .018.412.513.513 0 0 0 .331.26l6.942 1.686 1.064 6.875a.5.5 0 0 0 .232.351c.127.079.282.1.426.058a.51.51 0 0 0 .323-.276l6.58-13.993v-.004a.496.496 0 0 0 .03-.074V5.63a.488.488 0 0 0 .015-.078v-.004a.477.477 0 0 0 0-.077v-.004a.485.485 0 0 0-.011-.078v-.003a.539.539 0 0 0-.065-.148l-.007-.011a.507.507 0 0 0-.042-.052.514.514 0 0 0-.06-.059.517.517 0 0 0-.114-.07h-.005a.442.442 0 0 0-.156-.04h-.007A.536.536 0 0 0 19.447 5z" fill="#AAA"/>
</svg>
