<svg width="20" height="20" viewBox="0 0 20 20" fill="none" xmlns="http://www.w3.org/2000/svg">
    <path opacity=".4" d="M13.887 18.325H6.112a4.452 4.452 0 0 1-3.28-1.158 4.455 4.455 0 0 1-1.157-3.28V6.112a4.454 4.454 0 0 1 1.156-3.28 4.456 4.456 0 0 1 3.281-1.157h7.775a4.448 4.448 0 0 1 3.277 1.156 4.477 4.477 0 0 1 1.16 3.281v7.775a4.458 4.458 0 0 1-1.156 3.28 4.456 4.456 0 0 1-3.281 1.158" fill="#fff"/>
    <path d="m14.212 8.664-5.46 5.488a1.5 1.5 0 0 1-1.047.431H5.798a.386.386 0 0 1-.276-.114.38.38 0 0 1-.106-.276l.05-1.927c.007-.382.161-.74.43-1.008l3.87-3.878a.176.176 0 0 1 .243 0l1.357 1.352c.09.089.22.146.357.146.3 0 .536-.244.536-.536a.551.551 0 0 0-.146-.374c-.024-.033-1.317-1.32-1.317-1.32a.216.216 0 0 1 0-.3l.544-.553a1.281 1.281 0 0 1 1.817 0l1.055 1.056a1.293 1.293 0 0 1 0 1.813" fill="#fff"/>
</svg>
