<svg width="32" height="32" viewBox="0 0 32 32" fill="none" xmlns="http://www.w3.org/2000/svg">
    <rect width="32" height="32" rx="16" fill="#FF881A"/>
    <path fill-rule="evenodd" clip-rule="evenodd" d="M19.14 14.715c0 .333.267.6.6.6a.603.603 0 0 0 .607-.6.603.603 0 1 0-1.207 0zm-1.293 4.022a2.62 2.62 0 0 1-4.467-1.851 2.576 2.576 0 0 1 .76-1.845c.5-.5 1.16-.772 1.86-.772.7 0 1.36.273 1.853.765.494.5.767 1.16.767 1.852a2.639 2.639 0 0 1-.773 1.851zM16 15.267c-.433 0-.84.167-1.153.48a1.564 1.564 0 0 0-.467 1.132v.007c0 .433.167.839.473 1.145a1.61 1.61 0 0 0 1.147.473c.893 0 1.613-.726 1.62-1.618 0-.433-.167-.84-.473-1.146A1.61 1.61 0 0 0 16 15.268z" fill="#fff"/>
    <path opacity=".4" d="m19.627 12.158-.067-.147c-.18-.38-.386-.819-.513-1.072-.307-.6-.834-.932-1.48-.939h-3.14c-.647.007-1.167.34-1.473.939-.134.266-.36.746-.547 1.139l-.04.08c-.02.053-.074.08-.127.08a2.908 2.908 0 0 0-2.906 2.903v3.956c0 1.598 1.3 2.903 2.906 2.903h7.52c1.6 0 2.907-1.305 2.907-2.903V15.14a2.912 2.912 0 0 0-2.907-2.903.152.152 0 0 1-.133-.08z" fill="#fff"/>
</svg>
