<svg width="24" height="24" viewBox="0 0 24 24" fill="none" xmlns="http://www.w3.org/2000/svg">
    <path d="M4 12v8a2 2 0 0 0 2 2h12a2 2 0 0 0 2-2v-8M16 6l-4-4-4 4M12 2v13" stroke="#fff" stroke-width="2" stroke-linecap="round" stroke-linejoin="round"/>
<svg width="18" height="19" viewBox="0 0 18 19" fill="none" xmlns="http://www.w3.org/2000/svg">
    <g opacity=".7" stroke="#fff" stroke-width="2" stroke-linecap="round" stroke-linejoin="round">
        <path d="M3 9.5v6A1.5 1.5 0 0 0 4.5 17h9a1.5 1.5 0 0 0 1.5-1.5v-6M12 5 9 2 6 5M9 2v9.75"/>
    </g>
</svg>
