<svg width="12" height="12" viewBox="0 0 12 12" fill="none" xmlns="http://www.w3.org/2000/svg">
    <path opacity=".4" fill-rule="evenodd" clip-rule="evenodd" d="M8.868 3.023c.854.659 1.58 1.624 2.103 2.832.039.091.039.198 0 .286C9.927 8.555 8.068 10 6 10h-.005C3.932 10 2.073 8.555 1.03 6.14a.364.364 0 0 1 0-.285C2.073 3.44 3.932 2 5.995 2H6c1.034 0 2.015.359 2.868 1.023zM4.048 6c0 1.067.874 1.935 1.952 1.935A1.943 1.943 0 0 0 7.946 6c0-1.072-.873-1.94-1.946-1.94A1.945 1.945 0 0 0 4.049 6z" fill="#121212"/>
    <path d="M7.215 5.998c0 .664-.546 1.208-1.214 1.208-.673 0-1.22-.544-1.22-1.208 0-.082.01-.16.025-.237h.024a.998.998 0 0 0 1-.96c.054-.01.112-.015.17-.015.67 0 1.215.543 1.215 1.212z" fill="#121212"/>
</svg>
