<svg width="33" height="32" viewBox="0 0 33 32" fill="none" xmlns="http://www.w3.org/2000/svg">
    <path d="M29.833 19.604v1.844c0 .306-.013.615-.04.921-.374 4.212-3.3 6.965-7.522 6.965H10.728c-2.138 0-3.941-.694-5.237-1.952a6.122 6.122 0 0 1-1.27-1.643c.442-.536.936-1.123 1.417-1.71.815-.977 1.603-1.94 2.097-2.567.735-.91 2.672-3.302 5.358-2.18.547.228 1.028.549 1.47.83 1.082.721 1.536.935 2.297.52.842-.454 1.39-1.35 1.964-2.285.307-.496.615-.976.949-1.417 1.456-1.898 3.7-2.406 5.57-1.283.936.561 1.738 1.27 2.486 1.99.16.16.32.309.468.456.2.2.868.869 1.536 1.51" fill="#FF881A"/>
    <path opacity=".4" d="M22.285 2.667H10.728c-4.529 0-7.561 3.168-7.561 7.886v10.895c0 1.643.374 3.102 1.055 4.291.44-.536.935-1.123 1.416-1.712.815-.975 1.603-1.938 2.098-2.565.734-.91 2.672-3.302 5.357-2.18.548.228 1.029.549 1.47.83 1.082.721 1.536.935 2.298.52.841-.454 1.389-1.35 1.963-2.286.308-.495.615-.975.95-1.416 1.455-1.898 3.7-2.406 5.57-1.283.935.561 1.737 1.27 2.485 1.99.16.16.32.309.468.456.2.2.868.868 1.536 1.51v-9.05c0-4.718-3.033-7.886-7.548-7.886" fill="#FF881A"/>
    <path d="M15.772 11.73c0 1.877-1.564 3.441-3.441 3.441-1.876 0-3.44-1.564-3.44-3.442 0-1.877 1.564-3.442 3.44-3.442 1.877 0 3.441 1.565 3.441 3.442" fill="#FF881A"/>
</svg>
