<svg width="24" height="24" viewBox="0 0 24 24" fill="none" xmlns="http://www.w3.org/2000/svg">
    <rect x="1.5" y="1.5" width="21" height="21" rx="6" fill="url(#zoqt4w6zga)"/>
    <rect x="1.5" y="1.5" width="21" height="21" rx="6" fill="url(#lhuctkn0sb)"/>
    <rect x="1.5" y="1.5" width="21" height="21" rx="6" fill="url(#ly65lyh7bc)"/>
    <path d="M17.25 7.875a1.125 1.125 0 1 1-2.25 0 1.125 1.125 0 0 1 2.25 0z" fill="#fff"/>
    <path fill-rule="evenodd" clip-rule="evenodd" d="M12 15.75a3.75 3.75 0 1 0 0-7.5 3.75 3.75 0 0 0 0 7.5zm0-1.5a2.25 2.25 0 1 0 0-4.5 2.25 2.25 0 0 0 0 4.5z" fill="#fff"/>
    <path fill-rule="evenodd" clip-rule="evenodd" d="M4.5 11.7c0-2.52 0-3.78.49-4.743A4.5 4.5 0 0 1 6.957 4.99C7.92 4.5 9.18 4.5 11.7 4.5h.6c2.52 0 3.78 0 4.743.49a4.5 4.5 0 0 1 1.966 1.967c.491.963.491 2.223.491 4.743v.6c0 2.52 0 3.78-.49 4.743a4.5 4.5 0 0 1-1.967 1.966c-.963.491-2.223.491-4.743.491h-.6c-2.52 0-3.78 0-4.743-.49a4.5 4.5 0 0 1-1.967-1.967C4.5 16.08 4.5 14.82 4.5 12.3v-.6zM11.7 6h.6c1.285 0 2.158.001 2.833.056.658.054.994.151 1.229.271a3 3 0 0 1 1.311 1.311c.12.235.217.57.27 1.229C18 9.542 18 10.415 18 11.7v.6c0 1.285-.001 2.158-.056 2.833-.054.658-.151.994-.271 1.229a3 3 0 0 1-1.311 1.311c-.235.12-.57.217-1.229.27C14.458 18 13.585 18 12.3 18h-.6c-1.285 0-2.158-.001-2.833-.056-.658-.054-.994-.151-1.229-.271a3 3 0 0 1-1.311-1.311c-.12-.235-.217-.57-.27-1.229C6 14.458 6 13.585 6 12.3v-.6c0-1.285.001-2.158.056-2.833.054-.658.151-.994.271-1.229a3 3 0 0 1 1.311-1.311c.235-.12.57-.217 1.229-.27C9.542 6 10.415 6 11.7 6z" fill="#fff"/>
    <defs>
        <radialGradient id="zoqt4w6zga" cx="0" cy="0" r="1" gradientUnits="userSpaceOnUse" gradientTransform="rotate(-55.376 20.937 .05) scale(19.1397)">
            <stop stop-color="#B13589"/>
            <stop offset=".793" stop-color="#C62F94"/>
            <stop offset="1" stop-color="#8A3AC8"/>
        </radialGradient>
        <radialGradient id="lhuctkn0sb" cx="0" cy="0" r="1" gradientUnits="userSpaceOnUse" gradientTransform="rotate(-65.136 22.325 5.167) scale(16.9457)">
            <stop stop-color="#E0E8B7"/>
            <stop offset=".445" stop-color="#FB8A2E"/>
            <stop offset=".715" stop-color="#E2425C"/>
            <stop offset="1" stop-color="#E2425C" stop-opacity="0"/>
        </radialGradient>
        <radialGradient id="ly65lyh7bc" cx="0" cy="0" r="1" gradientUnits="userSpaceOnUse" gradientTransform="matrix(28.87504 -4.125 .8823 6.17607 .375 2.25)">
            <stop offset=".157" stop-color="#406ADC"/>
            <stop offset=".468" stop-color="#6A45BE"/>
            <stop offset="1" stop-color="#6A45BE" stop-opacity="0"/>
        </radialGradient>
    </defs>
</svg>
