<?xml version="1.0" standalone="no"?>
<!DOCTYPE svg PUBLIC "-//W3C//DTD SVG 20010904//EN"
 "http://www.w3.org/TR/2001/REC-SVG-20010904/DTD/svg10.dtd">
<svg version="1.0" xmlns="http://www.w3.org/2000/svg"
 width="5333.000000pt" height="5333.000000pt" viewBox="0 0 5333.000000 5333.000000"
 preserveAspectRatio="xMidYMid meet">

<g transform="translate(0.000000,5333.000000) scale(0.100000,-0.100000)"
fill="#000000" stroke="none">
<path d="M26240 49993 c-3955 -76 -7744 -1118 -11150 -3066 -2622 -1500 -4940
-3507 -6814 -5900 -2818 -3599 -4519 -7969 -4871 -12517 -82 -1063 -92 -2205
-30 -3250 216 -3587 1231 -7010 3003 -10125 2068 -3637 5106 -6676 8748 -8753
2557 -1457 5360 -2413 8274 -2821 2107 -296 4283 -302 6387 -20 4646 622 8987
2631 12478 5775 594 534 1270 1212 1786 1789 1823 2042 3260 4349 4269 6860
935 2327 1485 4783 1635 7300 29 496 38 830 38 1400 0 570 -9 904 -38 1400
-300 5043 -2205 9797 -5479 13670 -653 773 -1458 1603 -2216 2285 -2955 2658
-6551 4523 -10411 5399 -1822 413 -3748 610 -5609 574z m-11220 -11113 c1697
-104 2733 -585 3019 -1403 57 -161 74 -272 74 -467 1 -259 -37 -438 -137 -645
-187 -388 -577 -689 -1069 -825 -62 -18 -119 -34 -127 -37 -8 -3 21 -13 65
-23 177 -40 369 -124 530 -233 125 -85 313 -275 397 -402 207 -311 307 -644
339 -1119 21 -300 -3 -479 -86 -654 -278 -586 -1171 -921 -2694 -1012 -634
-38 -1674 -11 -2306 58 l-60 7 -9 3348 c-4 1841 -6 3350 -3 3353 12 12 565 50
932 64 261 10 902 4 1135 -10z m24830 -45 c153 -6 363 -21 408 -31 l22 -4 0
-1510 0 -1510 -737 -2 -738 -3 -53 -29 c-65 -36 -107 -83 -140 -154 -21 -47
-24 -65 -20 -136 3 -66 10 -91 33 -135 35 -63 95 -115 165 -142 48 -18 84 -19
764 -19 l714 0 -5 -1507 c-3 -830 -7 -1510 -9 -1512 -8 -9 -321 -30 -600 -41
-590 -23 -1253 26 -1761 130 -524 108 -1002 281 -1359 491 -959 564 -1434
1446 -1434 2663 0 757 182 1408 538 1926 146 213 369 450 579 617 656 522
1611 833 2768 903 295 18 471 19 865 5z m-17830 -2193 l0 -2149 1007 -6 c553
-4 1253 -7 1555 -7 l548 0 0 -1170 0 -1170 -2635 0 -2635 0 0 3325 0 3325
1080 0 1080 0 0 -2148z m9560 -1077 c849 -1716 1567 -3168 1597 -3227 l53
-108 -1480 0 -1479 0 -3 513 -3 512 -27 51 c-57 108 -156 168 -278 168 -122 0
-221 -60 -278 -168 l-27 -51 -3 -512 -3 -513 -1480 0 -1480 0 44 83 c25 45
768 1491 1652 3212 884 1722 1614 3141 1622 3154 8 13 18 19 22 15 4 -5 702
-1413 1551 -3129z m-13600 -5554 c58 -6 120 -14 138 -17 l32 -5 0 -1509 0
-1510 -737 -2 -738 -3 -51 -27 c-108 -57 -168 -156 -168 -278 0 -122 60 -221
168 -278 l51 -27 729 -3 728 -3 -3 -1505 c-3 -1224 -6 -1506 -17 -1513 -19
-11 -275 -30 -596 -43 -305 -12 -716 -1 -1031 27 -1154 104 -2074 460 -2664
1030 -466 451 -732 1005 -827 1725 -22 169 -30 663 -14 858 154 1860 1475
2922 3845 3092 162 11 1024 5 1155 -9z m4262 -558 c3 -529 5 -582 21 -625 25
-63 83 -127 148 -163 49 -27 63 -30 144 -30 78 0 97 4 141 27 60 32 118 93
148 157 21 45 21 58 24 629 l3 582 1129 0 1130 0 0 -2572 c0 -1415 -3 -2934
-7 -3375 l-6 -803 -1123 0 -1123 0 -3 613 c-3 601 -3 613 -24 658 -30 64 -88
125 -148 157 -44 23 -63 27 -141 27 -81 0 -95 -3 -144 -30 -65 -36 -123 -100
-148 -163 -16 -43 -18 -97 -21 -654 l-3 -608 -1189 0 -1190 0 0 3375 0 3375
1190 0 1189 0 3 -577z m9448 -2798 l0 -3375 -1727 2 -1728 3 -3 3373 -2 3372
1730 0 1730 0 0 -3375z m8425 3356 c66 -7 130 -14 143 -17 l22 -4 0 -1510 0
-1510 -720 0 c-696 0 -721 -1 -773 -20 -70 -26 -125 -75 -162 -141 -27 -49
-30 -62 -30 -149 0 -87 3 -100 30 -149 37 -66 92 -115 162 -141 52 -19 77 -20
767 -20 l714 0 -5 -1507 c-3 -830 -7 -1510 -9 -1512 -8 -9 -304 -30 -569 -42
-519 -22 -1083 11 -1575 92 -947 155 -1690 495 -2195 1003 -212 213 -363 423
-494 686 -232 467 -333 977 -318 1605 7 267 16 370 52 590 109 654 370 1180
805 1616 268 269 501 435 867 618 578 288 1269 457 2128 520 163 12 1011 6
1160 -8z m-21995 -10266 l0 -1435 -700 0 -700 0 0 -1940 0 -1940 -1165 0
-1165 0 0 1940 0 1940 -695 0 -695 0 0 1435 0 1435 2560 0 2560 0 0 -1435z
m6950 1303 c0 -109 11 -776 23 -1345 l2 -122 -510 -3 -510 -3 -53 -24 c-69
-31 -145 -114 -167 -182 -13 -37 -16 -72 -13 -123 8 -123 70 -210 188 -265
l55 -26 513 -3 512 -3 0 -107 c0 -59 9 -566 20 -1127 11 -561 20 -1028 20
-1037 0 -17 -32 -18 -530 -18 -512 0 -531 -1 -585 -21 -74 -28 -146 -100 -174
-174 -58 -155 8 -324 156 -397 l48 -23 548 -3 c423 -2 547 -5 547 -15 0 -6 7
-338 15 -737 8 -399 15 -755 15 -792 l0 -68 -2665 0 -2665 0 0 3375 0 3375
2605 0 2605 0 0 -132z m6985 113 c66 -7 130 -14 143 -17 l22 -4 0 -1510 0
-1510 -720 0 c-705 0 -720 0 -775 -21 -74 -28 -146 -100 -174 -174 -61 -162
18 -346 174 -404 55 -21 70 -21 770 -21 l715 0 -6 -1507 c-4 -830 -8 -1510
-10 -1512 -8 -9 -304 -30 -569 -42 -389 -16 -820 -1 -1210 42 -1491 165 -2534
744 -3025 1681 -223 427 -331 877 -347 1453 -17 641 96 1208 338 1694 135 272
281 479 483 688 260 270 528 464 891 646 583 292 1278 463 2140 526 163 12
1011 6 1160 -8z m5415 -556 c0 -555 1 -576 21 -629 57 -155 243 -236 402 -176
77 29 148 100 176 175 20 54 21 72 21 630 l0 575 1134 0 1134 0 -5 -3362 c-2
-1850 -6 -3369 -8 -3376 -4 -10 -234 -12 -1127 -10 l-1123 3 -5 615 -5 615
-24 49 c-31 63 -84 116 -147 147 -70 35 -198 35 -268 0 -63 -31 -122 -90 -150
-150 -21 -45 -21 -58 -26 -661 l-5 -615 -1190 0 -1190 0 -3 3373 -2 3372 1195
0 1195 0 0 -575z"/>
</g>
</svg>
