<svg width="375" height="290" viewBox="0 0 375 290" fill="none" xmlns="http://www.w3.org/2000/svg">
<rect width="375" height="290" fill="white"/>
<path d="M149.544 188.417C149.32 188.079 149.026 187.794 148.68 187.582C148.335 187.37 147.948 187.237 147.545 187.191C147.142 187.145 146.735 187.188 146.351 187.317C145.967 187.446 145.615 187.657 145.322 187.936L136.571 183.419L137.115 188.508L145.341 192.017C145.843 192.479 146.497 192.741 147.179 192.753C147.861 192.766 148.524 192.527 149.042 192.083C149.56 191.64 149.897 191.021 149.989 190.346C150.082 189.67 149.923 188.984 149.544 188.417V188.417Z" fill="#FFB8B8"/>
<path d="M141.767 190.465C141.609 190.537 141.437 190.576 141.263 190.578C141.088 190.58 140.916 190.545 140.756 190.476L132.444 186.87C129.602 185.637 127.304 183.415 125.978 180.615L121.608 171.391C121.286 170.977 121.048 170.503 120.909 169.997C120.77 169.49 120.732 168.962 120.798 168.441C120.863 167.92 121.03 167.417 121.29 166.961C121.55 166.505 121.897 166.104 122.311 165.782C122.726 165.46 123.2 165.223 123.706 165.085C124.213 164.946 124.741 164.909 125.262 164.974C125.783 165.04 126.286 165.208 126.742 165.468C127.198 165.728 127.598 166.076 127.919 166.491L135.6 180.742L142.693 186.1C142.896 186.254 143.047 186.467 143.125 186.709C143.203 186.952 143.205 187.212 143.13 187.456L142.434 189.705C142.359 189.946 142.213 190.158 142.014 190.314C141.938 190.374 141.855 190.424 141.767 190.465V190.465Z" fill="#FF881A"/>
<path d="M121.416 160.543C125.154 160.543 128.184 157.513 128.184 153.774C128.184 150.036 125.154 147.006 121.416 147.006C117.678 147.006 114.647 150.036 114.647 153.774C114.647 157.513 117.678 160.543 121.416 160.543Z" fill="#FFB8B8"/>
<path d="M124.157 242.565L127.536 242.565L129.143 229.533L124.157 229.533L124.157 242.565Z" fill="#FFB8B8"/>
<path d="M134.052 245.702L123.433 245.703L123.433 241.6L129.949 241.6C131.037 241.6 132.081 242.032 132.85 242.801C133.619 243.571 134.052 244.614 134.052 245.702V245.702V245.702Z" fill="#2F2E41"/>
<path d="M113.134 242.565L116.513 242.565L118.12 229.533L113.134 229.533L113.134 242.565Z" fill="#FFB8B8"/>
<path d="M123.028 245.702L112.41 245.703L112.41 241.6L118.926 241.6C120.014 241.6 121.057 242.032 121.827 242.801C122.596 243.571 123.028 244.614 123.028 245.702V245.702V245.702Z" fill="#2F2E41"/>
<path d="M111.954 238.835C111.838 238.702 111.751 238.546 111.7 238.376C111.649 238.207 111.635 238.029 111.658 237.854L117.573 193.49L132.27 195.986L133.838 195.044L129.782 237.138C129.749 237.422 129.618 237.686 129.412 237.885C129.207 238.084 128.939 238.206 128.653 238.23L124.203 238.601C124.027 238.616 123.849 238.592 123.681 238.532C123.514 238.472 123.362 238.377 123.235 238.253C123.108 238.129 123.009 237.98 122.944 237.814C122.88 237.649 122.852 237.471 122.862 237.294L124.015 217.248C124.017 217.214 124.006 217.18 123.985 217.153C123.963 217.127 123.933 217.109 123.899 217.104C123.865 217.098 123.831 217.105 123.802 217.124C123.774 217.142 123.753 217.171 123.744 217.204L118.044 238.341C117.973 238.604 117.817 238.836 117.601 239.002C117.384 239.168 117.119 239.258 116.847 239.258H112.888C112.711 239.258 112.536 239.22 112.375 239.147C112.214 239.074 112.071 238.968 111.954 238.835V238.835Z" fill="#2F2E41"/>
<path d="M122.132 196.595C121.964 196.443 121.747 196.354 121.519 196.344C121.292 196.335 121.068 196.405 120.888 196.544L117.949 198.829C117.79 198.954 117.602 199.037 117.402 199.072C117.202 199.107 116.997 199.093 116.804 199.03C116.611 198.967 116.437 198.858 116.296 198.712C116.155 198.566 116.052 198.388 115.996 198.193C114.555 193.146 111.29 180.441 112.094 171.499C112.55 166.43 116.927 162.578 121.851 162.901C125.218 163.126 127.432 165.068 128.434 168.673C130.893 177.525 133.595 193.763 134.112 196.928C134.152 197.174 134.118 197.426 134.013 197.652C133.908 197.877 133.737 198.066 133.523 198.193C132.133 199.028 130.544 199.475 128.923 199.487C126.961 199.487 124.609 198.804 122.132 196.595Z" fill="#FF881A"/>
<path d="M123.241 199.744C123.274 199.341 123.218 198.934 123.077 198.555C122.936 198.175 122.713 197.831 122.425 197.546C122.136 197.262 121.789 197.044 121.407 196.908C121.026 196.772 120.619 196.722 120.215 196.761L116.117 187.806L113.405 192.146L117.713 199.984C117.822 200.657 118.175 201.267 118.704 201.697C119.233 202.128 119.902 202.349 120.583 202.32C121.265 202.29 121.912 202.012 122.401 201.537C122.891 201.062 123.19 200.424 123.241 199.744V199.744Z" fill="#FFB8B8"/>
<path d="M115.857 196.557C115.688 196.516 115.529 196.441 115.391 196.335C115.253 196.229 115.138 196.095 115.055 195.942L110.74 187.975C109.264 185.251 108.828 182.084 109.512 179.063L111.766 169.108C111.768 168.583 111.873 168.063 112.076 167.579C112.279 167.095 112.575 166.655 112.948 166.286C113.321 165.916 113.763 165.623 114.249 165.425C114.735 165.226 115.256 165.125 115.781 165.127C116.306 165.13 116.825 165.236 117.309 165.44C117.793 165.643 118.232 165.94 118.601 166.313C118.971 166.687 119.263 167.129 119.461 167.615C119.659 168.101 119.759 168.622 119.756 169.147L117.005 185.101L119.28 193.694C119.344 193.94 119.332 194.201 119.244 194.44C119.156 194.679 118.996 194.885 118.787 195.031L116.851 196.371C116.644 196.514 116.397 196.591 116.145 196.591C116.048 196.591 115.952 196.58 115.857 196.557V196.557Z" fill="#FF881A"/>
<path opacity="0.2" d="M119.207 175.875L116.727 186.347L120.309 195.166L117.829 186.623L119.207 175.875Z" fill="black"/>
<path d="M120.639 160.547C118.157 160.603 115.704 159.059 114.584 156.736C114.038 155.558 113.811 154.256 113.928 152.962C114.045 151.668 114.501 150.428 115.25 149.366C115.998 148.354 117.02 147.577 118.194 147.125C119.368 146.673 120.647 146.566 121.88 146.815C123.246 145.946 124.833 145.362 126.424 145.51C128.015 145.659 129.588 146.649 130.183 148.203C130.778 149.757 130.139 151.805 128.66 152.436C127.711 152.841 126.64 152.645 125.628 152.482C124.616 152.318 123.512 152.212 122.631 152.759C121.751 153.307 121.355 154.774 122.143 155.459C122.565 155.848 122.864 156.351 123.002 156.908C123.141 157.465 123.113 158.05 122.923 158.591C122.527 159.665 121.445 160.529 120.639 160.547Z" fill="#2F2E41"/>
<path d="M250.263 92.6608H249.161V62.4723C249.161 60.1778 248.709 57.9058 247.831 55.7859C246.953 53.6661 245.666 51.74 244.043 50.1175C242.421 48.4951 240.495 47.2081 238.375 46.33C236.255 45.4519 233.983 45 231.689 45H167.73C163.096 45 158.652 46.8408 155.375 50.1175C152.099 53.3942 150.258 57.8383 150.258 62.4722V228.089C150.258 232.723 152.099 237.167 155.375 240.443C158.652 243.72 163.096 245.561 167.73 245.561H231.689C236.323 245.561 240.767 243.72 244.043 240.443C247.32 237.167 249.161 232.723 249.161 228.089V114.149H250.263L250.263 92.6608Z" fill="#E6E6E6"/>
<path d="M245.442 62.5941V227.967C245.442 231.428 244.067 234.746 241.62 237.194C239.173 239.641 235.854 241.015 232.393 241.016H168.128C164.667 241.015 161.348 239.641 158.901 237.194C156.454 234.746 155.079 231.428 155.079 227.967V62.5941C155.079 59.1334 156.454 55.8145 158.901 53.3674C161.348 50.9203 164.667 49.5455 168.128 49.5454H175.924C175.541 50.4868 175.395 51.5079 175.499 52.5189C175.604 53.5298 175.955 54.4997 176.521 55.3432C177.088 56.1867 177.854 56.878 178.751 57.3562C179.648 57.8344 180.648 58.0849 181.665 58.0856H218.306C219.322 58.0849 220.323 57.8344 221.219 57.3562C222.116 56.878 222.882 56.1867 223.449 55.3432C224.016 54.4997 224.367 53.5298 224.471 52.5188C224.575 51.5079 224.429 50.4868 224.046 49.5454H232.393C235.854 49.5455 239.173 50.9203 241.62 53.3674C244.067 55.8145 245.442 59.1334 245.442 62.5941V62.5941Z" fill="white"/>
<path d="M237.822 142.002C237.589 141.357 237.162 140.798 236.601 140.403C236.039 140.008 235.369 139.796 234.683 139.795H165.839C165.4 139.795 164.967 139.881 164.562 140.048C164.157 140.216 163.789 140.462 163.48 140.772C163.17 141.081 162.924 141.449 162.756 141.854C162.589 142.259 162.503 142.692 162.503 143.131V195.961C162.504 196.845 162.856 197.693 163.481 198.318C164.107 198.943 164.954 199.295 165.839 199.296H234.683C235.567 199.295 236.415 198.943 237.04 198.318C237.665 197.693 238.017 196.845 238.018 195.961V143.131C238.019 142.746 237.952 142.364 237.822 142.002V142.002Z" fill="#F2F2F2"/>
<path d="M237.822 75.642C237.589 74.9962 237.162 74.4379 236.601 74.0429C236.039 73.648 235.369 73.4356 234.683 73.4346H165.839C165.4 73.4344 164.967 73.5206 164.562 73.6881C164.157 73.8557 163.789 74.1014 163.48 74.4112C163.17 74.721 162.924 75.0888 162.756 75.4935C162.589 75.8983 162.503 76.3321 162.503 76.7702V129.6C162.504 130.484 162.856 131.332 163.481 131.957C164.107 132.583 164.954 132.935 165.839 132.936H234.683C235.567 132.935 236.415 132.583 237.04 131.957C237.665 131.332 238.017 130.484 238.018 129.6V76.7702C238.019 76.3856 237.952 76.0038 237.822 75.642V75.642Z" fill="white"/>
<path d="M237.822 75.642C237.589 74.9962 237.162 74.4379 236.601 74.0429C236.039 73.648 235.369 73.4356 234.683 73.4346H165.839C165.4 73.4344 164.967 73.5206 164.562 73.6881C164.157 73.8557 163.789 74.1014 163.48 74.4112C163.17 74.721 162.924 75.0888 162.756 75.4935C162.589 75.8983 162.503 76.3321 162.503 76.7702V129.6C162.504 130.484 162.856 131.332 163.481 131.957C164.107 132.583 164.954 132.935 165.839 132.936H234.683C235.567 132.935 236.415 132.583 237.04 131.957C237.665 131.332 238.017 130.484 238.018 129.6V76.7702C238.019 76.3856 237.952 76.0038 237.822 75.642V75.642ZM237.626 129.6C237.625 130.38 237.314 131.129 236.763 131.68C236.211 132.232 235.463 132.542 234.683 132.543H165.839C165.058 132.542 164.31 132.232 163.758 131.68C163.207 131.129 162.896 130.38 162.895 129.6V76.7702C162.896 75.9899 163.207 75.2419 163.758 74.6901C164.31 74.1383 165.058 73.828 165.839 73.827H234.683C235.463 73.828 236.211 74.1383 236.763 74.6901C237.314 75.2419 237.625 75.9899 237.626 76.7702V129.6Z" fill="#3F3D56"/>
<path d="M232.709 80.543V117.433C232.709 117.554 232.685 117.675 232.638 117.788C232.591 117.9 232.523 118.003 232.437 118.089C232.351 118.175 232.248 118.244 232.136 118.29C232.023 118.337 231.902 118.361 231.781 118.361H169.158C169.113 118.362 169.069 118.358 169.025 118.351C168.804 118.319 168.602 118.209 168.455 118.04C168.309 117.871 168.229 117.656 168.229 117.433V80.543C168.229 80.4211 168.253 80.3003 168.299 80.1877C168.346 80.075 168.414 79.9727 168.501 79.8864C168.587 79.8002 168.689 79.7317 168.802 79.685C168.914 79.6384 169.035 79.6143 169.157 79.6143H231.78C231.902 79.6142 232.023 79.6382 232.135 79.6848C232.248 79.7314 232.35 79.7998 232.436 79.886C232.523 79.9722 232.591 80.0745 232.638 80.1871C232.685 80.2997 232.709 80.4205 232.709 80.5424V80.543Z" fill="#E6E6E6"/>
<path d="M184.014 101.548C188.514 101.548 192.162 97.9004 192.162 93.4004C192.162 88.9004 188.514 85.2524 184.014 85.2524C179.514 85.2524 175.866 88.9004 175.866 93.4004C175.866 97.9004 179.514 101.548 184.014 101.548Z" fill="#FF881A"/>
<path d="M209.565 118.509H169.594C169.544 118.51 169.494 118.506 169.445 118.498L188.349 85.7519C188.465 85.548 188.632 85.3784 188.835 85.2603C189.037 85.1423 189.267 85.0801 189.501 85.0801C189.736 85.0801 189.966 85.1423 190.168 85.2603C190.371 85.3784 190.538 85.548 190.653 85.7519L203.341 107.727L203.949 108.778L209.565 118.509Z" fill="#3F3D56"/>
<path opacity="0.2" d="M209.565 118.51H195.918L202.617 108.779L203.1 108.078L203.341 107.728L203.948 108.779L209.565 118.51Z" fill="black"/>
<path d="M231.821 118.51H197.249L203.949 108.778L204.431 108.077L213.161 95.3959C213.733 94.5648 215.11 94.513 215.783 95.2392C215.828 95.2887 215.87 95.3411 215.908 95.3959L231.821 118.51Z" fill="#3F3D56"/>
<path d="M220.024 145.089C219.79 144.443 219.364 143.885 218.802 143.49C218.241 143.095 217.571 142.882 216.884 142.881H148.04C147.602 142.881 147.168 142.967 146.764 143.135C146.359 143.302 145.991 143.548 145.681 143.858C145.372 144.168 145.126 144.536 144.958 144.94C144.791 145.345 144.705 145.779 144.705 146.217V199.047C144.706 199.931 145.058 200.779 145.683 201.404C146.308 202.03 147.156 202.381 148.04 202.383H216.884C217.769 202.381 218.616 202.03 219.242 201.404C219.867 200.779 220.219 199.931 220.22 199.047V146.217C220.221 145.832 220.154 145.451 220.024 145.089V145.089Z" fill="white"/>
<path d="M220.024 145.089C219.79 144.443 219.364 143.885 218.802 143.49C218.241 143.095 217.571 142.882 216.884 142.881H148.04C147.602 142.881 147.168 142.967 146.764 143.135C146.359 143.302 145.991 143.548 145.681 143.858C145.372 144.168 145.126 144.536 144.958 144.94C144.791 145.345 144.705 145.779 144.705 146.217V199.047C144.706 199.931 145.058 200.779 145.683 201.404C146.308 202.03 147.156 202.381 148.04 202.383H216.884C217.769 202.381 218.616 202.03 219.242 201.404C219.867 200.779 220.219 199.931 220.22 199.047V146.217C220.221 145.832 220.154 145.451 220.024 145.089V145.089ZM219.828 199.047C219.827 199.827 219.516 200.575 218.964 201.127C218.413 201.679 217.665 201.989 216.884 201.99H148.04C147.26 201.989 146.512 201.679 145.96 201.127C145.408 200.575 145.098 199.827 145.097 199.047V146.217C145.098 145.437 145.408 144.689 145.96 144.137C146.512 143.585 147.26 143.275 148.04 143.274H216.884C217.665 143.275 218.413 143.585 218.964 144.137C219.516 144.689 219.827 145.437 219.828 146.217L219.828 199.047Z" fill="#3F3D56"/>
<path d="M214.91 149.989V186.878C214.91 187 214.886 187.121 214.84 187.234C214.793 187.346 214.725 187.449 214.639 187.535C214.553 187.621 214.45 187.69 214.338 187.736C214.225 187.783 214.104 187.807 213.982 187.807H151.359C151.315 187.807 151.27 187.804 151.226 187.797C151.005 187.765 150.803 187.655 150.657 187.486C150.511 187.317 150.431 187.101 150.431 186.878V149.989C150.431 149.867 150.455 149.746 150.501 149.633C150.548 149.521 150.616 149.418 150.702 149.332C150.789 149.246 150.891 149.178 151.004 149.131C151.116 149.084 151.237 149.06 151.359 149.06H213.982C214.104 149.06 214.224 149.084 214.337 149.131C214.45 149.177 214.552 149.246 214.638 149.332C214.725 149.418 214.793 149.52 214.84 149.633C214.886 149.746 214.91 149.866 214.91 149.988V149.989Z" fill="#E6E6E6"/>
<path d="M166.216 170.995C170.716 170.995 174.364 167.347 174.364 162.847C174.364 158.347 170.716 154.699 166.216 154.699C161.716 154.699 158.068 158.347 158.068 162.847C158.068 167.347 161.716 170.995 166.216 170.995Z" fill="#FF881A"/>
<path d="M191.767 187.956H151.796C151.746 187.956 151.696 187.952 151.646 187.944L170.551 155.198C170.666 154.994 170.834 154.825 171.036 154.707C171.239 154.589 171.469 154.526 171.703 154.526C171.937 154.526 172.168 154.589 172.37 154.707C172.572 154.825 172.74 154.994 172.855 155.198L185.543 177.173L186.15 178.225L191.767 187.956Z" fill="#3F3D56"/>
<path opacity="0.2" d="M191.767 187.956H178.12L184.819 178.225L185.301 177.524L185.543 177.173L186.151 178.225L191.767 187.956Z" fill="black"/>
<path d="M214.023 187.956H179.451L186.15 178.225L186.633 177.524L195.362 164.843C195.935 164.012 197.312 163.96 197.985 164.686C198.03 164.735 198.072 164.788 198.11 164.843L214.023 187.956Z" fill="#3F3D56"/>
<path d="M189.197 222.36H169.355C168.003 222.36 166.706 221.822 165.75 220.866C164.794 219.91 164.257 218.613 164.257 217.261C164.257 215.909 164.794 214.612 165.75 213.656C166.706 212.7 168.003 212.163 169.355 212.163H189.197C190.549 212.163 191.845 212.7 192.802 213.656C193.758 214.612 194.295 215.909 194.295 217.261C194.295 218.613 193.758 219.91 192.802 220.866C191.845 221.822 190.549 222.36 189.197 222.36V222.36Z" fill="#FF881A"/>
<path d="M228.626 222.36H208.785C207.433 222.36 206.136 221.822 205.18 220.866C204.224 219.91 203.687 218.613 203.687 217.261C203.687 215.909 204.224 214.612 205.18 213.656C206.136 212.7 207.433 212.163 208.785 212.163H228.626C229.979 212.163 231.275 212.7 232.231 213.656C233.188 214.612 233.725 215.909 233.725 217.261C233.725 218.613 233.188 219.91 232.231 220.866C231.275 221.822 229.979 222.36 228.626 222.36V222.36Z" fill="#F2F2F2"/>
<path d="M288.724 245.783H87.2756C87.2025 245.783 87.1324 245.754 87.0807 245.702C87.029 245.651 87 245.581 87 245.508C87 245.434 87.029 245.364 87.0807 245.313C87.1324 245.261 87.2025 245.232 87.2756 245.232H288.724C288.798 245.232 288.868 245.261 288.919 245.313C288.971 245.364 289 245.434 289 245.508C289 245.581 288.971 245.651 288.919 245.702C288.868 245.754 288.798 245.783 288.724 245.783Z" fill="#3F3D56"/>
</svg>
