<svg width="156" height="156" viewBox="0 0 156 156" fill="none" xmlns="http://www.w3.org/2000/svg">
<rect width="156" height="156" rx="8" fill="#E9ECEC"/>
<path d="M94.146 53.04H60.294C58.3702 53.04 56.5251 53.8043 55.1647 55.1647C53.8043 56.5251 53.04 58.3702 53.04 60.294V94.146C53.04 96.0699 53.8043 97.915 55.1647 99.2754C56.5251 100.636 58.3702 101.4 60.294 101.4H94.146C96.0699 101.4 97.915 100.636 99.2754 99.2754C100.636 97.915 101.4 96.0699 101.4 94.146V60.294C101.4 58.3702 100.636 56.5251 99.2754 55.1647C97.915 53.8043 96.0699 53.04 94.146 53.04ZM72.384 65.13C73.3405 65.13 74.2755 65.4137 75.0708 65.9451C75.8661 66.4764 76.4859 67.2317 76.8519 68.1154C77.2179 68.999 77.3137 69.9714 77.1271 70.9095C76.9405 71.8476 76.4799 72.7093 75.8036 73.3856C75.1273 74.0619 74.2656 74.5225 73.3275 74.7091C72.3894 74.8957 71.417 74.7999 70.5334 74.4339C69.6497 74.0679 68.8944 73.4481 68.3631 72.6528C67.8317 71.8575 67.548 70.9225 67.548 69.966C67.548 68.6835 68.0575 67.4534 68.9645 66.5465C69.8714 65.6395 71.1015 65.13 72.384 65.13ZM66.3149 96.564H60.294C59.7822 96.5553 59.2864 96.3844 58.878 96.0759C58.4695 95.7673 58.1695 95.3372 58.0211 94.8473L65.4927 85.8765C65.7336 85.6071 66.0277 85.3907 66.3565 85.2408C66.6853 85.091 67.0417 85.011 67.403 85.006C67.7701 85.0134 68.1308 85.1043 68.4576 85.2719C68.7844 85.4395 69.0687 85.6793 69.289 85.9732L71.707 89.1891L66.3149 96.564ZM96.564 94.146C96.564 94.7873 96.3093 95.4024 95.8558 95.8558C95.4024 96.3093 94.7873 96.564 94.146 96.564H72.384L85.6105 78.3807C85.8156 78.0977 86.0796 77.8625 86.3843 77.6914C86.689 77.5202 87.0273 77.4172 87.3756 77.3893C87.7259 77.3603 88.0782 77.4081 88.4081 77.5292C88.738 77.6503 89.0375 77.8418 89.2859 78.0905L96.564 85.4654V94.146Z" fill="#B7B9BE"/>
</svg>
